<?xml version="1.0" standalone="no"?><!DOCTYPE svg PUBLIC "-//W3C//DTD SVG 1.1//EN" "http://www.w3.org/Graphics/SVG/1.1/DTD/svg11.dtd"><svg class="icon" width="200px" height="200.00px" viewBox="0 0 1024 1024" version="1.1" xmlns="http://www.w3.org/2000/svg"><path d="M483.8 664.7c33 0 60-27 60-60s-27-60-60-60-60 27-60 60 26.9 60 60 60z" fill="#5100A1" /><path d="M473.6 603.3m-60 0a60 60 0 1 0 120 0 60 60 0 1 0-120 0Z" fill="#5102A2" /><path d="M463.4 601.4m-60 0a60 60 0 1 0 120 0 60 60 0 1 0-120 0Z" fill="#5105A3" /><path d="M453.3 599.1m-60 0a60 60 0 1 0 120 0 60 60 0 1 0-120 0Z" fill="#5107A4" /><path d="M443.4 596.4m-60 0a60 60 0 1 0 120 0 60 60 0 1 0-120 0Z" fill="#510AA5" /><path d="M433.5 593.2m-60 0a60 60 0 1 0 120 0 60 60 0 1 0-120 0Z" fill="#510CA6" /><path d="M423.8 589.7m-60 0a60 60 0 1 0 120 0 60 60 0 1 0-120 0Z" fill="#510FA7" /><path d="M414.3 585.7m-60 0a60 60 0 1 0 120 0 60 60 0 1 0-120 0Z" fill="#5211A8" /><path d="M404.9 581.3m-60 0a60 60 0 1 0 120 0 60 60 0 1 0-120 0Z" fill="#5214A8" /><path d="M395.8 576.5m-60 0a60 60 0 1 0 120 0 60 60 0 1 0-120 0Z" fill="#5216A9" /><path d="M386.9 571.3m-60 0a60 60 0 1 0 120 0 60 60 0 1 0-120 0Z" fill="#5219AA" /><path d="M378.1 565.8m-60 0a60 60 0 1 0 120 0 60 60 0 1 0-120 0Z" fill="#521BAB" /><path d="M369.6 559.9m-60 0a60 60 0 1 0 120 0 60 60 0 1 0-120 0Z" fill="#521EAC" /><path d="M361.4 553.7m-60 0a60 60 0 1 0 120 0 60 60 0 1 0-120 0Z" fill="#5220AD" /><path d="M353.5 547m-60 0a60 60 0 1 0 120 0 60 60 0 1 0-120 0Z" fill="#5223AE" /><path d="M345.8 540.1m-60 0a60 60 0 1 0 120 0 60 60 0 1 0-120 0Z" fill="#5225AF" /><path d="M338.5 532.8m-60 0a60 60 0 1 0 120 0 60 60 0 1 0-120 0Z" fill="#5228B0" /><path d="M331.5 525.2m-60 0a60 60 0 1 0 120 0 60 60 0 1 0-120 0Z" fill="#522AB1" /><path d="M324.8 517.4m-60 0a60 60 0 1 0 120 0 60 60 0 1 0-120 0Z" fill="#522DB2" /><path d="M318.4 509.2m-60 0a60 60 0 1 0 120 0 60 60 0 1 0-120 0Z" fill="#532FB3" /><path d="M312.4 500.8m-60 0a60 60 0 1 0 120 0 60 60 0 1 0-120 0Z" fill="#5332B4" /><path d="M306.8 492.2m-60 0a60 60 0 1 0 120 0 60 60 0 1 0-120 0Z" fill="#5334B5" /><path d="M301.6 483.2m-60 0a60 60 0 1 0 120 0 60 60 0 1 0-120 0Z" fill="#5337B5" /><path d="M296.7 474.1m-60 0a60 60 0 1 0 120 0 60 60 0 1 0-120 0Z" fill="#5339B6" /><path d="M292.3 464.8m-60 0a60 60 0 1 0 120 0 60 60 0 1 0-120 0Z" fill="#533CB7" /><path d="M288.2 455.3m-60 0a60 60 0 1 0 120 0 60 60 0 1 0-120 0Z" fill="#533EB8" /><path d="M284.5 445.7m-60 0a60 60 0 1 0 120 0 60 60 0 1 0-120 0Z" fill="#5341B9" /><path d="M281.3 435.9m-60 0a60 60 0 1 0 120 0 60 60 0 1 0-120 0Z" fill="#5343BA" /><path d="M278.4 425.9m-60 0a60 60 0 1 0 120 0 60 60 0 1 0-120 0Z" fill="#5346BB" /><path d="M276 415.9m-60 0a60 60 0 1 0 120 0 60 60 0 1 0-120 0Z" fill="#5348BC" /><path d="M274.1 405.7m-60 0a60 60 0 1 0 120 0 60 60 0 1 0-120 0Z" fill="#534BBD" /><path d="M272.5 395.5m-60 0a60 60 0 1 0 120 0 60 60 0 1 0-120 0Z" fill="#534DBE" /><path d="M271.5 385.2m-60 0a60 60 0 1 0 120 0 60 60 0 1 0-120 0Z" fill="#5450BF" /><path d="M270.8 374.9m-60 0a60 60 0 1 0 120 0 60 60 0 1 0-120 0Z" fill="#5452C0" /><path d="M270.6 364.6m-60 0a60 60 0 1 0 120 0 60 60 0 1 0-120 0Z" fill="#5455C1" /><path d="M270.8 354.3m-60 0a60 60 0 1 0 120 0 60 60 0 1 0-120 0Z" fill="#5457C2" /><path d="M271.5 344m-60 0a60 60 0 1 0 120 0 60 60 0 1 0-120 0Z" fill="#545AC3" /><path d="M272.6 333.7m-60 0a60 60 0 1 0 120 0 60 60 0 1 0-120 0Z" fill="#545CC3" /><path d="M274.1 323.5m-60 0a60 60 0 1 0 120 0 60 60 0 1 0-120 0Z" fill="#545FC4" /><path d="M276.1 313.3m-60 0a60 60 0 1 0 120 0 60 60 0 1 0-120 0Z" fill="#5461C5" /><path d="M278.6 303.3m-60 0a60 60 0 1 0 120 0 60 60 0 1 0-120 0Z" fill="#5464C6" /><path d="M281.4 293.4m-60 0a60 60 0 1 0 120 0 60 60 0 1 0-120 0Z" fill="#5466C7" /><path d="M284.7 283.6m-60 0a60 60 0 1 0 120 0 60 60 0 1 0-120 0Z" fill="#5469C8" /><path d="M288.4 273.9m-60 0a60 60 0 1 0 120 0 60 60 0 1 0-120 0Z" fill="#546BC9" /><path d="M292.5 264.5m-60 0a60 60 0 1 0 120 0 60 60 0 1 0-120 0Z" fill="#546ECA" /><path d="M297 255.1m-60 0a60 60 0 1 0 120 0 60 60 0 1 0-120 0Z" fill="#5570CB" /><path d="M301.9 246.1m-60 0a60 60 0 1 0 120 0 60 60 0 1 0-120 0Z" fill="#5573CC" /><path d="M307.2 237.2m-60 0a60 60 0 1 0 120 0 60 60 0 1 0-120 0Z" fill="#5575CD" /><path d="M312.8 228.6m-60 0a60 60 0 1 0 120 0 60 60 0 1 0-120 0Z" fill="#5578CE" /><path d="M318.8 220.2m-60 0a60 60 0 1 0 120 0 60 60 0 1 0-120 0Z" fill="#557ACF" /><path d="M325.2 212m-60 0a60 60 0 1 0 120 0 60 60 0 1 0-120 0Z" fill="#557DD0" /><path d="M331.9 204.1m-60 0a60 60 0 1 0 120 0 60 60 0 1 0-120 0Z" fill="#557FD0" /><path d="M338.9 196.6m-60 0a60 60 0 1 0 120 0 60 60 0 1 0-120 0Z" fill="#5582D1" /><path d="M346.3 189.3m-60 0a60 60 0 1 0 120 0 60 60 0 1 0-120 0Z" fill="#5584D2" /><path d="M354 182.4m-60 0a60 60 0 1 0 120 0 60 60 0 1 0-120 0Z" fill="#5587D3" /><path d="M361.9 175.8m-60 0a60 60 0 1 0 120 0 60 60 0 1 0-120 0Z" fill="#5589D4" /><path d="M370.1 169.6m-60 0a60 60 0 1 0 120 0 60 60 0 1 0-120 0Z" fill="#558CD5" /><path d="M378.6 163.7m-60 0a60 60 0 1 0 120 0 60 60 0 1 0-120 0Z" fill="#568ED6" /><path d="M387.4 158.2m-60 0a60 60 0 1 0 120 0 60 60 0 1 0-120 0Z" fill="#5691D7" /><path d="M396.3 153m-60 0a60 60 0 1 0 120 0 60 60 0 1 0-120 0Z" fill="#5693D8" /><path d="M405.5 148.3m-60 0a60 60 0 1 0 120 0 60 60 0 1 0-120 0Z" fill="#5696D9" /><path d="M414.9 143.9m-60 0a60 60 0 1 0 120 0 60 60 0 1 0-120 0Z" fill="#5698DA" /><path d="M424.4 140m-60 0a60 60 0 1 0 120 0 60 60 0 1 0-120 0Z" fill="#569BDB" /><path d="M434.1 136.5m-60 0a60 60 0 1 0 120 0 60 60 0 1 0-120 0Z" fill="#569DDC" /><path d="M444 133.3m-60 0a60 60 0 1 0 120 0 60 60 0 1 0-120 0Z" fill="#56A0DD" /><path d="M453.9 130.6m-60 0a60 60 0 1 0 120 0 60 60 0 1 0-120 0Z" fill="#56A2DD" /><path d="M464 128.4m-60 0a60 60 0 1 0 120 0 60 60 0 1 0-120 0Z" fill="#56A5DE" /><path d="M474.2 126.5m-60 0a60 60 0 1 0 120 0 60 60 0 1 0-120 0Z" fill="#56A7DF" /><path d="M484.4 125.1m-60 0a60 60 0 1 0 120 0 60 60 0 1 0-120 0Z" fill="#56AAE0" /><path d="M494.7 124.1m-60 0a60 60 0 1 0 120 0 60 60 0 1 0-120 0Z" fill="#56ACE1" /><path d="M505 123.6m-60 0a60 60 0 1 0 120 0 60 60 0 1 0-120 0Z" fill="#57AFE2" /><path d="M515.3 123.5m-60 0a60 60 0 1 0 120 0 60 60 0 1 0-120 0Z" fill="#57B1E3" /><path d="M525.7 123.9m-60 0a60 60 0 1 0 120 0 60 60 0 1 0-120 0Z" fill="#57B4E4" /><path d="M536 124.7m-60 0a60 60 0 1 0 120 0 60 60 0 1 0-120 0Z" fill="#57B6E5" /><path d="M546.2 125.9m-60 0a60 60 0 1 0 120 0 60 60 0 1 0-120 0Z" fill="#57B9E6" /><path d="M556.4 127.6m-60 0a60 60 0 1 0 120 0 60 60 0 1 0-120 0Z" fill="#57BBE7" /><path d="M566.5 129.7m-60 0a60 60 0 1 0 120 0 60 60 0 1 0-120 0Z" fill="#57BEE8" /><path d="M576.5 132.2m-60 0a60 60 0 1 0 120 0 60 60 0 1 0-120 0Z" fill="#57C0E9" /><path d="M586.4 135.2m-60 0a60 60 0 1 0 120 0 60 60 0 1 0-120 0Z" fill="#57C3EA" /><path d="M596.2 138.7m-60 0a60 60 0 1 0 120 0 60 60 0 1 0-120 0Z" fill="#57C5EB" /><path d="M605.8 142.5m-60 0a60 60 0 1 0 120 0 60 60 0 1 0-120 0Z" fill="#57C8EB" /><path d="M615.2 146.7m-60 0a60 60 0 1 0 120 0 60 60 0 1 0-120 0Z" fill="#57CAEC" /><path d="M624.4 151.3m-60 0a60 60 0 1 0 120 0 60 60 0 1 0-120 0Z" fill="#57CDED" /><path d="M633.5 156.3m-60 0a60 60 0 1 0 120 0 60 60 0 1 0-120 0Z" fill="#58CFEE" /><path d="M642.3 161.7m-60 0a60 60 0 1 0 120 0 60 60 0 1 0-120 0Z" fill="#58D2EF" /><path d="M650.9 167.4m-60 0a60 60 0 1 0 120 0 60 60 0 1 0-120 0Z" fill="#58D4F0" /><path d="M659.2 173.6m-60 0a60 60 0 1 0 120 0 60 60 0 1 0-120 0Z" fill="#58D7F1" /><path d="M667.3 180m-60 0a60 60 0 1 0 120 0 60 60 0 1 0-120 0Z" fill="#58D9F2" /><path d="M675 186.8m-60 0a60 60 0 1 0 120 0 60 60 0 1 0-120 0Z" fill="#58DCF3" /><path d="M682.5 194m-60 0a60 60 0 1 0 120 0 60 60 0 1 0-120 0Z" fill="#58DEF4" /><path d="M689.7 201.4m-60 0a60 60 0 1 0 120 0 60 60 0 1 0-120 0Z" fill="#58E1F5" /><path d="M696.5 209.2m-60 0a60 60 0 1 0 120 0 60 60 0 1 0-120 0Z" fill="#58E3F6" /><path d="M703 217.2m-60 0a60 60 0 1 0 120 0 60 60 0 1 0-120 0Z" fill="#58E6F7" /><path d="M709.1 225.5m-60 0a60 60 0 1 0 120 0 60 60 0 1 0-120 0Z" fill="#58E8F8" /><path d="M714.9 234.1m-60 0a60 60 0 1 0 120 0 60 60 0 1 0-120 0Z" fill="#58EBF8" /><path d="M720.3 242.9m-60 0a60 60 0 1 0 120 0 60 60 0 1 0-120 0Z" fill="#59EDF9" /><path d="M725.3 251.9m-60 0a60 60 0 1 0 120 0 60 60 0 1 0-120 0Z" fill="#59F0FA" /><path d="M730 261.1m-60 0a60 60 0 1 0 120 0 60 60 0 1 0-120 0Z" fill="#59F2FB" /><path d="M734.2 270.6m-60 0a60 60 0 1 0 120 0 60 60 0 1 0-120 0Z" fill="#59F5FC" /><path d="M738 280.2m-60 0a60 60 0 1 0 120 0 60 60 0 1 0-120 0Z" fill="#59F7FD" /><path d="M741.5 289.9m-60 0a60 60 0 1 0 120 0 60 60 0 1 0-120 0Z" fill="#59FAFE" /><path d="M744.5 359.9c33 0 60-27 60-60s-27-60-60-60-60 27-60 60 26.9 60 60 60z" fill="#59FCFF" /><path d="M746.3 306.7m-60 0a60 60 0 1 0 120 0 60 60 0 1 0-120 0Z" fill="#59FAFF" /><path d="M747.8 313.6m-60 0a60 60 0 1 0 120 0 60 60 0 1 0-120 0Z" fill="#5AF8FF" /><path d="M749.3 320.5m-60 0a60 60 0 1 0 120 0 60 60 0 1 0-120 0Z" fill="#5AF7FF" /><path d="M750.5 327.4m-60 0a60 60 0 1 0 120 0 60 60 0 1 0-120 0Z" fill="#5BF5FF" /><path d="M751.5 334.4m-60 0a60 60 0 1 0 120 0 60 60 0 1 0-120 0Z" fill="#5BF3FF" /><path d="M752.2 341.4m-60 0a60 60 0 1 0 120 0 60 60 0 1 0-120 0Z" fill="#5CF1FF" /><path d="M752.9 348.5m-60 0a60 60 0 1 0 120 0 60 60 0 1 0-120 0Z" fill="#5CEFFF" /><path d="M753.3 355.5m-60 0a60 60 0 1 0 120 0 60 60 0 1 0-120 0Z" fill="#5DEEFF" /><path d="M753.4 362.6m-60 0a60 60 0 1 0 120 0 60 60 0 1 0-120 0Z" fill="#5DECFF" /><path d="M753.4 369.6m-60 0a60 60 0 1 0 120 0 60 60 0 1 0-120 0Z" fill="#5EEAFF" /><path d="M753.2 376.7m-60 0a60 60 0 1 0 120 0 60 60 0 1 0-120 0Z" fill="#5EE8FF" /><path d="M752.7 383.7m-60 0a60 60 0 1 0 120 0 60 60 0 1 0-120 0Z" fill="#5EE6FF" /><path d="M752 390.8m-60 0a60 60 0 1 0 120 0 60 60 0 1 0-120 0Z" fill="#5FE5FF" /><path d="M751.2 397.8m-60 0a60 60 0 1 0 120 0 60 60 0 1 0-120 0Z" fill="#5FE3FF" /><path d="M750.2 404.7m-60 0a60 60 0 1 0 120 0 60 60 0 1 0-120 0Z" fill="#60E1FF" /><path d="M748.9 411.7m-60 0a60 60 0 1 0 120 0 60 60 0 1 0-120 0Z" fill="#60DFFF" /><path d="M747.4 418.6m-60 0a60 60 0 1 0 120 0 60 60 0 1 0-120 0Z" fill="#61DEFF" /><path d="M745.7 425.4m-60 0a60 60 0 1 0 120 0 60 60 0 1 0-120 0Z" fill="#61DCFF" /><path d="M743.6 432.2m-60 0a60 60 0 1 0 120 0 60 60 0 1 0-120 0Z" fill="#62DAFF" /><path d="M741 438.7m-60 0a60 60 0 1 0 120 0 60 60 0 1 0-120 0Z" fill="#62D8FF" /><path d="M738.3 445.2m-60 0a60 60 0 1 0 120 0 60 60 0 1 0-120 0Z" fill="#63D6FF" /><path d="M735.3 451.6m-60 0a60 60 0 1 0 120 0 60 60 0 1 0-120 0Z" fill="#63D5FF" /><path d="M732.1 457.9m-60 0a60 60 0 1 0 120 0 60 60 0 1 0-120 0Z" fill="#63D3FF" /><path d="M728.9 464.2m-60 0a60 60 0 1 0 120 0 60 60 0 1 0-120 0Z" fill="#64D1FF" /><path d="M725.4 470.4m-60 0a60 60 0 1 0 120 0 60 60 0 1 0-120 0Z" fill="#64CFFF" /><path d="M722 476.5m-60 0a60 60 0 1 0 120 0 60 60 0 1 0-120 0Z" fill="#65CDFF" /><path d="M718.4 482.6m-60 0a60 60 0 1 0 120 0 60 60 0 1 0-120 0Z" fill="#65CCFF" /><path d="M714.8 488.7m-60 0a60 60 0 1 0 120 0 60 60 0 1 0-120 0Z" fill="#66CAFF" /><path d="M711.1 494.7m-60 0a60 60 0 1 0 120 0 60 60 0 1 0-120 0Z" fill="#66C8FF" /><path d="M707.4 500.7m-60 0a60 60 0 1 0 120 0 60 60 0 1 0-120 0Z" fill="#67C6FF" /><path d="M703.7 506.7m-60 0a60 60 0 1 0 120 0 60 60 0 1 0-120 0Z" fill="#67C4FF" /><path d="M699.8 512.6m-60 0a60 60 0 1 0 120 0 60 60 0 1 0-120 0Z" fill="#68C3FF" /><path d="M696 518.5m-60 0a60 60 0 1 0 120 0 60 60 0 1 0-120 0Z" fill="#68C1FF" /><path d="M692.1 524.4m-60 0a60 60 0 1 0 120 0 60 60 0 1 0-120 0Z" fill="#68BFFF" /><path d="M688.2 530.3m-60 0a60 60 0 1 0 120 0 60 60 0 1 0-120 0Z" fill="#69BDFF" /><path d="M684.2 536.1m-60 0a60 60 0 1 0 120 0 60 60 0 1 0-120 0Z" fill="#69BBFF" /><path d="M680.3 542m-60 0a60 60 0 1 0 120 0 60 60 0 1 0-120 0Z" fill="#6ABAFF" /><path d="M676.3 547.8m-60 0a60 60 0 1 0 120 0 60 60 0 1 0-120 0Z" fill="#6AB8FF" /><path d="M672.3 553.6m-60 0a60 60 0 1 0 120 0 60 60 0 1 0-120 0Z" fill="#6BB6FF" /><path d="M668.2 559.4m-60 0a60 60 0 1 0 120 0 60 60 0 1 0-120 0Z" fill="#6BB4FF" /><path d="M664.1 565.2m-60 0a60 60 0 1 0 120 0 60 60 0 1 0-120 0Z" fill="#6CB3FF" /><path d="M660.1 570.9m-60 0a60 60 0 1 0 120 0 60 60 0 1 0-120 0Z" fill="#6CB1FF" /><path d="M656 576.7m-60 0a60 60 0 1 0 120 0 60 60 0 1 0-120 0Z" fill="#6DAFFF" /><path d="M651.9 582.4m-60 0a60 60 0 1 0 120 0 60 60 0 1 0-120 0Z" fill="#6DADFF" /><path d="M647.7 588.1m-60 0a60 60 0 1 0 120 0 60 60 0 1 0-120 0Z" fill="#6DABFF" /><path d="M643.6 593.8m-60 0a60 60 0 1 0 120 0 60 60 0 1 0-120 0Z" fill="#6EAAFF" /><path d="M639.4 599.5m-60 0a60 60 0 1 0 120 0 60 60 0 1 0-120 0Z" fill="#6EA8FF" /><path d="M635.3 605.2m-60 0a60 60 0 1 0 120 0 60 60 0 1 0-120 0Z" fill="#6FA6FF" /><path d="M631.1 610.9m-60 0a60 60 0 1 0 120 0 60 60 0 1 0-120 0Z" fill="#6FA4FF" /><path d="M626.9 616.6m-60 0a60 60 0 1 0 120 0 60 60 0 1 0-120 0Z" fill="#70A2FF" /><path d="M622.7 622.3m-60 0a60 60 0 1 0 120 0 60 60 0 1 0-120 0Z" fill="#70A1FF" /><path d="M618.5 627.9m-60 0a60 60 0 1 0 120 0 60 60 0 1 0-120 0Z" fill="#719FFF" /><path d="M614.2 633.6m-60 0a60 60 0 1 0 120 0 60 60 0 1 0-120 0Z" fill="#719DFF" /><path d="M610 639.2m-60 0a60 60 0 1 0 120 0 60 60 0 1 0-120 0Z" fill="#729BFF" /><path d="M605.8 644.9m-60 0a60 60 0 1 0 120 0 60 60 0 1 0-120 0Z" fill="#7299FF" /><path d="M601.5 650.5m-60 0a60 60 0 1 0 120 0 60 60 0 1 0-120 0Z" fill="#7398FF" /><path d="M597.2 656.1m-60 0a60 60 0 1 0 120 0 60 60 0 1 0-120 0Z" fill="#7396FF" /><path d="M593 661.7m-60 0a60 60 0 1 0 120 0 60 60 0 1 0-120 0Z" fill="#7394FF" /><path d="M588.7 667.4m-60 0a60 60 0 1 0 120 0 60 60 0 1 0-120 0Z" fill="#7492FF" /><path d="M584.4 673m-60 0a60 60 0 1 0 120 0 60 60 0 1 0-120 0Z" fill="#7490FF" /><path d="M580.1 678.6m-60 0a60 60 0 1 0 120 0 60 60 0 1 0-120 0Z" fill="#758FFF" /><path d="M575.8 684.2m-60 0a60 60 0 1 0 120 0 60 60 0 1 0-120 0Z" fill="#758DFF" /><path d="M571.5 689.7m-60 0a60 60 0 1 0 120 0 60 60 0 1 0-120 0Z" fill="#768BFF" /><path d="M567.2 695.3m-60 0a60 60 0 1 0 120 0 60 60 0 1 0-120 0Z" fill="#7689FF" /><path d="M562.9 700.9m-60 0a60 60 0 1 0 120 0 60 60 0 1 0-120 0Z" fill="#7788FF" /><path d="M558.5 706.5m-60 0a60 60 0 1 0 120 0 60 60 0 1 0-120 0Z" fill="#7786FF" /><path d="M554.2 712.1m-60 0a60 60 0 1 0 120 0 60 60 0 1 0-120 0Z" fill="#7884FF" /><path d="M549.9 717.6m-60 0a60 60 0 1 0 120 0 60 60 0 1 0-120 0Z" fill="#7882FF" /><path d="M545.5 723.2m-60 0a60 60 0 1 0 120 0 60 60 0 1 0-120 0Z" fill="#7880FF" /><path d="M541.2 728.8m-60 0a60 60 0 1 0 120 0 60 60 0 1 0-120 0Z" fill="#797FFF" /><path d="M536.8 734.3m-60 0a60 60 0 1 0 120 0 60 60 0 1 0-120 0Z" fill="#797DFF" /><path d="M532.5 739.9m-60 0a60 60 0 1 0 120 0 60 60 0 1 0-120 0Z" fill="#7A7BFF" /><path d="M528.1 745.4m-60 0a60 60 0 1 0 120 0 60 60 0 1 0-120 0Z" fill="#7A79FF" /><path d="M523.7 751m-60 0a60 60 0 1 0 120 0 60 60 0 1 0-120 0Z" fill="#7B77FF" /><path d="M519.4 756.5m-60 0a60 60 0 1 0 120 0 60 60 0 1 0-120 0Z" fill="#7B76FF" /><path d="M515 762.1m-60 0a60 60 0 1 0 120 0 60 60 0 1 0-120 0Z" fill="#7C74FF" /><path d="M510.6 767.6m-60 0a60 60 0 1 0 120 0 60 60 0 1 0-120 0Z" fill="#7C72FF" /><path d="M506.3 773.1m-60 0a60 60 0 1 0 120 0 60 60 0 1 0-120 0Z" fill="#7D70FF" /><path d="M501.9 778.7m-60 0a60 60 0 1 0 120 0 60 60 0 1 0-120 0Z" fill="#7D6EFF" /><path d="M497.5 784.2m-60 0a60 60 0 1 0 120 0 60 60 0 1 0-120 0Z" fill="#7D6DFF" /><path d="M493.1 789.7m-60 0a60 60 0 1 0 120 0 60 60 0 1 0-120 0Z" fill="#7E6BFF" /><path d="M488.7 795.3m-60 0a60 60 0 1 0 120 0 60 60 0 1 0-120 0Z" fill="#7E69FF" /><path d="M484.3 800.8m-60 0a60 60 0 1 0 120 0 60 60 0 1 0-120 0Z" fill="#7F67FF" /><path d="M479.9 806.3m-60 0a60 60 0 1 0 120 0 60 60 0 1 0-120 0Z" fill="#7F65FF" /><path d="M475.6 811.8m-60 0a60 60 0 1 0 120 0 60 60 0 1 0-120 0Z" fill="#8064FF" /><path d="M471.2 817.4m-60 0a60 60 0 1 0 120 0 60 60 0 1 0-120 0Z" fill="#8062FF" /><path d="M466.8 822.9m-60 0a60 60 0 1 0 120 0 60 60 0 1 0-120 0Z" fill="#8160FF" /><path d="M462.4 828.4m-60 0a60 60 0 1 0 120 0 60 60 0 1 0-120 0Z" fill="#815EFF" /><path d="M458 833.9m-60 0a60 60 0 1 0 120 0 60 60 0 1 0-120 0Z" fill="#825DFF" /><path d="M453.6 839.5m-60 0a60 60 0 1 0 120 0 60 60 0 1 0-120 0Z" fill="#825BFF" /><path d="M449.2 845m-60 0a60 60 0 1 0 120 0 60 60 0 1 0-120 0Z" fill="#8259FF" /><path d="M444.8 850.5m-60 0a60 60 0 1 0 120 0 60 60 0 1 0-120 0Z" fill="#8357FF" /><path d="M440.4 856.1m-60 0a60 60 0 1 0 120 0 60 60 0 1 0-120 0Z" fill="#8355FF" /><path d="M436.1 861.6m-60 0a60 60 0 1 0 120 0 60 60 0 1 0-120 0Z" fill="#8454FF" /><path d="M431.7 867.1m-60 0a60 60 0 1 0 120 0 60 60 0 1 0-120 0Z" fill="#8452FF" /><path d="M427.3 872.7m-60 0a60 60 0 1 0 120 0 60 60 0 1 0-120 0Z" fill="#8550FF" /><path d="M423 878.2m-60 0a60 60 0 1 0 120 0 60 60 0 1 0-120 0Z" fill="#854EFF" /><path d="M418.6 883.8m-60 0a60 60 0 1 0 120 0 60 60 0 1 0-120 0Z" fill="#864CFF" /><path d="M414.3 889.4m-60 0a60 60 0 1 0 120 0 60 60 0 1 0-120 0Z" fill="#864BFF" /><path d="M410 895m-60 0a60 60 0 1 0 120 0 60 60 0 1 0-120 0Z" fill="#8749FF" /><path d="M405.7 960.5c33 0 60-27 60-60s-27-60-60-60-60 27-60 60 27 60 60 60z" fill="#8747FF" /></svg>