<?xml version="1.0" standalone="no"?><!DOCTYPE svg PUBLIC "-//W3C//DTD SVG 1.1//EN" "http://www.w3.org/Graphics/SVG/1.1/DTD/svg11.dtd"><svg class="icon" width="200px" height="200.00px" viewBox="0 0 1024 1024" version="1.1" xmlns="http://www.w3.org/2000/svg"><path d="M774.2 668.8c33 0 60-27 60-60s-27-60-60-60-60 27-60 60c0 33.1 27 60 60 60z" fill="#5100A1" /><path d="M764 608.8m-60 0a60 60 0 1 0 120 0 60 60 0 1 0-120 0Z" fill="#5102A2" /><path d="M753.8 608.8m-60 0a60 60 0 1 0 120 0 60 60 0 1 0-120 0Z" fill="#5105A3" /><path d="M743.6 608.8m-60 0a60 60 0 1 0 120 0 60 60 0 1 0-120 0Z" fill="#5107A4" /><path d="M733.5 608.8m-60 0a60 60 0 1 0 120 0 60 60 0 1 0-120 0Z" fill="#510AA5" /><path d="M723.3 608.8m-60 0a60 60 0 1 0 120 0 60 60 0 1 0-120 0Z" fill="#510CA6" /><path d="M713.1 608.8m-60 0a60 60 0 1 0 120 0 60 60 0 1 0-120 0Z" fill="#510FA7" /><path d="M702.9 608.8m-60 0a60 60 0 1 0 120 0 60 60 0 1 0-120 0Z" fill="#5211A8" /><path d="M692.7 608.8m-60 0a60 60 0 1 0 120 0 60 60 0 1 0-120 0Z" fill="#5214A8" /><path d="M682.5 608.8m-60 0a60 60 0 1 0 120 0 60 60 0 1 0-120 0Z" fill="#5216A9" /><path d="M672.3 608.8m-60 0a60 60 0 1 0 120 0 60 60 0 1 0-120 0Z" fill="#5219AA" /><path d="M662.1 608.8m-60 0a60 60 0 1 0 120 0 60 60 0 1 0-120 0Z" fill="#521BAB" /><path d="M651.9 608.8m-60 0a60 60 0 1 0 120 0 60 60 0 1 0-120 0Z" fill="#521EAC" /><path d="M641.8 608.8m-60 0a60 60 0 1 0 120 0 60 60 0 1 0-120 0Z" fill="#5220AD" /><path d="M631.6 608.8m-60 0a60 60 0 1 0 120 0 60 60 0 1 0-120 0Z" fill="#5223AE" /><path d="M621.4 608.8m-60 0a60 60 0 1 0 120 0 60 60 0 1 0-120 0Z" fill="#5225AF" /><path d="M611.2 608.8m-60 0a60 60 0 1 0 120 0 60 60 0 1 0-120 0Z" fill="#5228B0" /><path d="M601 608.8m-60 0a60 60 0 1 0 120 0 60 60 0 1 0-120 0Z" fill="#522AB1" /><path d="M590.8 608.8m-60 0a60 60 0 1 0 120 0 60 60 0 1 0-120 0Z" fill="#522DB2" /><path d="M580.6 608.8m-60 0a60 60 0 1 0 120 0 60 60 0 1 0-120 0Z" fill="#532FB3" /><path d="M570.4 608.8m-60 0a60 60 0 1 0 120 0 60 60 0 1 0-120 0Z" fill="#5332B4" /><path d="M560.2 608.8m-60 0a60 60 0 1 0 120 0 60 60 0 1 0-120 0Z" fill="#5334B5" /><path d="M550.1 608.8m-60 0a60 60 0 1 0 120 0 60 60 0 1 0-120 0Z" fill="#5337B5" /><path d="M539.9 608.8m-60 0a60 60 0 1 0 120 0 60 60 0 1 0-120 0Z" fill="#5339B6" /><path d="M529.7 608.8m-60 0a60 60 0 1 0 120 0 60 60 0 1 0-120 0Z" fill="#533CB7" /><path d="M519.5 608.8m-60 0a60 60 0 1 0 120 0 60 60 0 1 0-120 0Z" fill="#533EB8" /><path d="M509.3 608.8m-60 0a60 60 0 1 0 120 0 60 60 0 1 0-120 0Z" fill="#5341B9" /><path d="M499.1 608.8m-60 0a60 60 0 1 0 120 0 60 60 0 1 0-120 0Z" fill="#5343BA" /><path d="M488.9 608.8m-60 0a60 60 0 1 0 120 0 60 60 0 1 0-120 0Z" fill="#5346BB" /><path d="M478.7 608.8m-60 0a60 60 0 1 0 120 0 60 60 0 1 0-120 0Z" fill="#5348BC" /><path d="M468.5 608.8m-60 0a60 60 0 1 0 120 0 60 60 0 1 0-120 0Z" fill="#534BBD" /><path d="M458.4 608.8m-60 0a60 60 0 1 0 120 0 60 60 0 1 0-120 0Z" fill="#534DBE" /><path d="M448.2 608.8m-60 0a60 60 0 1 0 120 0 60 60 0 1 0-120 0Z" fill="#5450BF" /><path d="M438 608.8m-60 0a60 60 0 1 0 120 0 60 60 0 1 0-120 0Z" fill="#5452C0" /><path d="M427.8 608.8m-60 0a60 60 0 1 0 120 0 60 60 0 1 0-120 0Z" fill="#5455C1" /><path d="M417.6 608.8m-60 0a60 60 0 1 0 120 0 60 60 0 1 0-120 0Z" fill="#5457C2" /><path d="M407.4 608.8m-60 0a60 60 0 1 0 120 0 60 60 0 1 0-120 0Z" fill="#545AC3" /><path d="M397.2 608.8m-60 0a60 60 0 1 0 120 0 60 60 0 1 0-120 0Z" fill="#545CC3" /><path d="M387 608.8m-60 0a60 60 0 1 0 120 0 60 60 0 1 0-120 0Z" fill="#545FC4" /><path d="M376.8 608.8m-60 0a60 60 0 1 0 120 0 60 60 0 1 0-120 0Z" fill="#5461C5" /><path d="M366.6 608.8m-60 0a60 60 0 1 0 120 0 60 60 0 1 0-120 0Z" fill="#5464C6" /><path d="M356.5 608.8m-60 0a60 60 0 1 0 120 0 60 60 0 1 0-120 0Z" fill="#5466C7" /><path d="M346.3 608.8m-60 0a60 60 0 1 0 120 0 60 60 0 1 0-120 0Z" fill="#5469C8" /><path d="M336.1 608.8m-60 0a60 60 0 1 0 120 0 60 60 0 1 0-120 0Z" fill="#546BC9" /><path d="M325.9 608.8m-60 0a60 60 0 1 0 120 0 60 60 0 1 0-120 0Z" fill="#546ECA" /><path d="M315.7 608.8m-60 0a60 60 0 1 0 120 0 60 60 0 1 0-120 0Z" fill="#5570CB" /><path d="M305.5 608.8m-60 0a60 60 0 1 0 120 0 60 60 0 1 0-120 0Z" fill="#5573CC" /><path d="M295.3 608.8m-60 0a60 60 0 1 0 120 0 60 60 0 1 0-120 0Z" fill="#5575CD" /><path d="M285.1 608.8m-60 0a60 60 0 1 0 120 0 60 60 0 1 0-120 0Z" fill="#5578CE" /><path d="M274.9 608.8m-60 0a60 60 0 1 0 120 0 60 60 0 1 0-120 0Z" fill="#557ACF" /><path d="M264.8 608.8m-60 0a60 60 0 1 0 120 0 60 60 0 1 0-120 0Z" fill="#557DD0" /><path d="M254.6 608.8m-60 0a60 60 0 1 0 120 0 60 60 0 1 0-120 0Z" fill="#557FD0" /><path d="M249.8 605.9m-60 0a60 60 0 1 0 120 0 60 60 0 1 0-120 0Z" fill="#5582D1" /><path d="M255.5 597.5m-60 0a60 60 0 1 0 120 0 60 60 0 1 0-120 0Z" fill="#5584D2" /><path d="M261.1 589m-60 0a60 60 0 1 0 120 0 60 60 0 1 0-120 0Z" fill="#5587D3" /><path d="M266.8 580.6m-60 0a60 60 0 1 0 120 0 60 60 0 1 0-120 0Z" fill="#5589D4" /><path d="M272.5 572.1m-60 0a60 60 0 1 0 120 0 60 60 0 1 0-120 0Z" fill="#558CD5" /><path d="M278.2 563.6m-60 0a60 60 0 1 0 120 0 60 60 0 1 0-120 0Z" fill="#568ED6" /><path d="M283.8 555.2m-60 0a60 60 0 1 0 120 0 60 60 0 1 0-120 0Z" fill="#5691D7" /><path d="M289.5 546.7m-60 0a60 60 0 1 0 120 0 60 60 0 1 0-120 0Z" fill="#5693D8" /><path d="M295.2 538.3m-60 0a60 60 0 1 0 120 0 60 60 0 1 0-120 0Z" fill="#5696D9" /><path d="M300.9 529.8m-60 0a60 60 0 1 0 120 0 60 60 0 1 0-120 0Z" fill="#5698DA" /><path d="M306.5 521.3m-60 0a60 60 0 1 0 120 0 60 60 0 1 0-120 0Z" fill="#569BDB" /><path d="M312.2 512.9m-60 0a60 60 0 1 0 120 0 60 60 0 1 0-120 0Z" fill="#569DDC" /><path d="M317.9 504.4m-60 0a60 60 0 1 0 120 0 60 60 0 1 0-120 0Z" fill="#56A0DD" /><path d="M323.6 495.9m-60 0a60 60 0 1 0 120 0 60 60 0 1 0-120 0Z" fill="#56A2DD" /><path d="M329.2 487.5m-60 0a60 60 0 1 0 120 0 60 60 0 1 0-120 0Z" fill="#56A5DE" /><path d="M334.9 479m-60 0a60 60 0 1 0 120 0 60 60 0 1 0-120 0Z" fill="#56A7DF" /><path d="M340.6 470.6m-60 0a60 60 0 1 0 120 0 60 60 0 1 0-120 0Z" fill="#56AAE0" /><path d="M346.3 462.1m-60 0a60 60 0 1 0 120 0 60 60 0 1 0-120 0Z" fill="#56ACE1" /><path d="M352 453.6m-60 0a60 60 0 1 0 120 0 60 60 0 1 0-120 0Z" fill="#57AFE2" /><path d="M357.6 445.2m-60 0a60 60 0 1 0 120 0 60 60 0 1 0-120 0Z" fill="#57B1E3" /><path d="M363.3 436.7m-60 0a60 60 0 1 0 120 0 60 60 0 1 0-120 0Z" fill="#57B4E4" /><path d="M369 428.2m-60 0a60 60 0 1 0 120 0 60 60 0 1 0-120 0Z" fill="#57B6E5" /><path d="M374.7 419.8m-60 0a60 60 0 1 0 120 0 60 60 0 1 0-120 0Z" fill="#57B9E6" /><path d="M380.3 411.3m-60 0a60 60 0 1 0 120 0 60 60 0 1 0-120 0Z" fill="#57BBE7" /><path d="M386 402.9m-60 0a60 60 0 1 0 120 0 60 60 0 1 0-120 0Z" fill="#57BEE8" /><path d="M391.7 394.4m-60 0a60 60 0 1 0 120 0 60 60 0 1 0-120 0Z" fill="#57C0E9" /><path d="M397.4 385.9m-60 0a60 60 0 1 0 120 0 60 60 0 1 0-120 0Z" fill="#57C3EA" /><path d="M403 377.5m-60 0a60 60 0 1 0 120 0 60 60 0 1 0-120 0Z" fill="#57C5EB" /><path d="M408.7 369m-60 0a60 60 0 1 0 120 0 60 60 0 1 0-120 0Z" fill="#57C8EB" /><path d="M414.4 360.6m-60 0a60 60 0 1 0 120 0 60 60 0 1 0-120 0Z" fill="#57CAEC" /><path d="M420.1 352.1m-60 0a60 60 0 1 0 120 0 60 60 0 1 0-120 0Z" fill="#57CDED" /><path d="M425.7 343.6m-60 0a60 60 0 1 0 120 0 60 60 0 1 0-120 0Z" fill="#58CFEE" /><path d="M431.4 335.2m-60 0a60 60 0 1 0 120 0 60 60 0 1 0-120 0Z" fill="#58D2EF" /><path d="M437.1 326.7m-60 0a60 60 0 1 0 120 0 60 60 0 1 0-120 0Z" fill="#58D4F0" /><path d="M442.8 318.2m-60 0a60 60 0 1 0 120 0 60 60 0 1 0-120 0Z" fill="#58D7F1" /><path d="M448.4 309.8m-60 0a60 60 0 1 0 120 0 60 60 0 1 0-120 0Z" fill="#58D9F2" /><path d="M454.1 301.3m-60 0a60 60 0 1 0 120 0 60 60 0 1 0-120 0Z" fill="#58DCF3" /><path d="M459.8 292.9m-60 0a60 60 0 1 0 120 0 60 60 0 1 0-120 0Z" fill="#58DEF4" /><path d="M465.5 284.4m-60 0a60 60 0 1 0 120 0 60 60 0 1 0-120 0Z" fill="#58E1F5" /><path d="M471.2 275.9m-60 0a60 60 0 1 0 120 0 60 60 0 1 0-120 0Z" fill="#58E3F6" /><path d="M476.8 267.5m-60 0a60 60 0 1 0 120 0 60 60 0 1 0-120 0Z" fill="#58E6F7" /><path d="M482.5 259m-60 0a60 60 0 1 0 120 0 60 60 0 1 0-120 0Z" fill="#58E8F8" /><path d="M488.2 250.6m-60 0a60 60 0 1 0 120 0 60 60 0 1 0-120 0Z" fill="#58EBF8" /><path d="M493.9 242.1m-60 0a60 60 0 1 0 120 0 60 60 0 1 0-120 0Z" fill="#59EDF9" /><path d="M499.5 233.6m-60 0a60 60 0 1 0 120 0 60 60 0 1 0-120 0Z" fill="#59F0FA" /><path d="M505.2 225.2m-60 0a60 60 0 1 0 120 0 60 60 0 1 0-120 0Z" fill="#59F2FB" /><path d="M510.9 216.7m-60 0a60 60 0 1 0 120 0 60 60 0 1 0-120 0Z" fill="#59F5FC" /><path d="M516.6 208.2m-60 0a60 60 0 1 0 120 0 60 60 0 1 0-120 0Z" fill="#59F7FD" /><path d="M522.2 199.8m-60 0a60 60 0 1 0 120 0 60 60 0 1 0-120 0Z" fill="#59FAFE" /><path d="M527.9 251.3c33 0 60-27 60-60s-27-60-60-60-60 27-60 60c0 33.1 27 60 60 60z" fill="#59FCFF" /><path d="M533 183.8m-60 0a60 60 0 1 0 120 0 60 60 0 1 0-120 0Z" fill="#59FAFF" /><path d="M538 176.2m-60 0a60 60 0 1 0 120 0 60 60 0 1 0-120 0Z" fill="#5AF8FF" /><path d="M543.1 168.7m-60 0a60 60 0 1 0 120 0 60 60 0 1 0-120 0Z" fill="#5AF7FF" /><path d="M548.1 161.2m-60 0a60 60 0 1 0 120 0 60 60 0 1 0-120 0Z" fill="#5BF5FF" /><path d="M553.2 153.6m-60 0a60 60 0 1 0 120 0 60 60 0 1 0-120 0Z" fill="#5BF3FF" /><path d="M558.3 146.1m-60 0a60 60 0 1 0 120 0 60 60 0 1 0-120 0Z" fill="#5CF1FF" /><path d="M563.3 138.5m-60 0a60 60 0 1 0 120 0 60 60 0 1 0-120 0Z" fill="#5CEFFF" /><path d="M568.4 131m-60 0a60 60 0 1 0 120 0 60 60 0 1 0-120 0Z" fill="#5DEEFF" /><path d="M573.4 123.5m-60 0a60 60 0 1 0 120 0 60 60 0 1 0-120 0Z" fill="#5DECFF" /><path d="M582.4 123.3m-60 0a60 60 0 1 0 120 0 60 60 0 1 0-120 0Z" fill="#5EEAFF" /><path d="M591.5 123.3m-60 0a60 60 0 1 0 120 0 60 60 0 1 0-120 0Z" fill="#5EE8FF" /><path d="M600.6 123.3m-60 0a60 60 0 1 0 120 0 60 60 0 1 0-120 0Z" fill="#5EE6FF" /><path d="M609.7 123.3m-60 0a60 60 0 1 0 120 0 60 60 0 1 0-120 0Z" fill="#5FE5FF" /><path d="M618.8 123.3m-60 0a60 60 0 1 0 120 0 60 60 0 1 0-120 0Z" fill="#5FE3FF" /><path d="M627.8 123.3m-60 0a60 60 0 1 0 120 0 60 60 0 1 0-120 0Z" fill="#60E1FF" /><path d="M631.3 128.9m-60 0a60 60 0 1 0 120 0 60 60 0 1 0-120 0Z" fill="#60DFFF" /><path d="M631.3 138m-60 0a60 60 0 1 0 120 0 60 60 0 1 0-120 0Z" fill="#61DEFF" /><path d="M631.3 147.1m-60 0a60 60 0 1 0 120 0 60 60 0 1 0-120 0Z" fill="#61DCFF" /><path d="M631.3 156.2m-60 0a60 60 0 1 0 120 0 60 60 0 1 0-120 0Z" fill="#62DAFF" /><path d="M631.3 165.3m-60 0a60 60 0 1 0 120 0 60 60 0 1 0-120 0Z" fill="#62D8FF" /><path d="M631.3 174.3m-60 0a60 60 0 1 0 120 0 60 60 0 1 0-120 0Z" fill="#63D6FF" /><path d="M631.3 183.4m-60 0a60 60 0 1 0 120 0 60 60 0 1 0-120 0Z" fill="#63D5FF" /><path d="M631.3 192.5m-60 0a60 60 0 1 0 120 0 60 60 0 1 0-120 0Z" fill="#63D3FF" /><path d="M631.3 201.6m-60 0a60 60 0 1 0 120 0 60 60 0 1 0-120 0Z" fill="#64D1FF" /><path d="M631.3 210.7m-60 0a60 60 0 1 0 120 0 60 60 0 1 0-120 0Z" fill="#64CFFF" /><path d="M631.3 219.7m-60 0a60 60 0 1 0 120 0 60 60 0 1 0-120 0Z" fill="#65CDFF" /><path d="M631.3 228.8m-60 0a60 60 0 1 0 120 0 60 60 0 1 0-120 0Z" fill="#65CCFF" /><path d="M631.3 237.9m-60 0a60 60 0 1 0 120 0 60 60 0 1 0-120 0Z" fill="#66CAFF" /><path d="M631.3 247m-60 0a60 60 0 1 0 120 0 60 60 0 1 0-120 0Z" fill="#66C8FF" /><path d="M631.3 256.1m-60 0a60 60 0 1 0 120 0 60 60 0 1 0-120 0Z" fill="#67C6FF" /><path d="M631.3 265.1m-60 0a60 60 0 1 0 120 0 60 60 0 1 0-120 0Z" fill="#67C4FF" /><path d="M631.3 274.2m-60 0a60 60 0 1 0 120 0 60 60 0 1 0-120 0Z" fill="#68C3FF" /><path d="M631.3 283.3m-60 0a60 60 0 1 0 120 0 60 60 0 1 0-120 0Z" fill="#68C1FF" /><path d="M631.3 292.4m-60 0a60 60 0 1 0 120 0 60 60 0 1 0-120 0Z" fill="#68BFFF" /><path d="M631.3 301.5m-60 0a60 60 0 1 0 120 0 60 60 0 1 0-120 0Z" fill="#69BDFF" /><path d="M631.3 310.5m-60 0a60 60 0 1 0 120 0 60 60 0 1 0-120 0Z" fill="#69BBFF" /><path d="M631.3 319.6m-60 0a60 60 0 1 0 120 0 60 60 0 1 0-120 0Z" fill="#6ABAFF" /><path d="M631.3 328.7m-60 0a60 60 0 1 0 120 0 60 60 0 1 0-120 0Z" fill="#6AB8FF" /><path d="M631.3 337.8m-60 0a60 60 0 1 0 120 0 60 60 0 1 0-120 0Z" fill="#6BB6FF" /><path d="M631.3 346.9m-60 0a60 60 0 1 0 120 0 60 60 0 1 0-120 0Z" fill="#6BB4FF" /><path d="M631.3 355.9m-60 0a60 60 0 1 0 120 0 60 60 0 1 0-120 0Z" fill="#6CB3FF" /><path d="M631.3 365m-60 0a60 60 0 1 0 120 0 60 60 0 1 0-120 0Z" fill="#6CB1FF" /><path d="M631.3 374.1m-60 0a60 60 0 1 0 120 0 60 60 0 1 0-120 0Z" fill="#6DAFFF" /><path d="M631.3 383.2m-60 0a60 60 0 1 0 120 0 60 60 0 1 0-120 0Z" fill="#6DADFF" /><path d="M631.3 392.3m-60 0a60 60 0 1 0 120 0 60 60 0 1 0-120 0Z" fill="#6DABFF" /><path d="M631.3 401.3m-60 0a60 60 0 1 0 120 0 60 60 0 1 0-120 0Z" fill="#6EAAFF" /><path d="M631.3 410.4m-60 0a60 60 0 1 0 120 0 60 60 0 1 0-120 0Z" fill="#6EA8FF" /><path d="M631.3 419.5m-60 0a60 60 0 1 0 120 0 60 60 0 1 0-120 0Z" fill="#6FA6FF" /><path d="M631.3 428.6m-60 0a60 60 0 1 0 120 0 60 60 0 1 0-120 0Z" fill="#6FA4FF" /><path d="M631.3 437.7m-60 0a60 60 0 1 0 120 0 60 60 0 1 0-120 0Z" fill="#70A2FF" /><path d="M631.3 446.7m-60 0a60 60 0 1 0 120 0 60 60 0 1 0-120 0Z" fill="#70A1FF" /><path d="M631.3 455.8m-60 0a60 60 0 1 0 120 0 60 60 0 1 0-120 0Z" fill="#719FFF" /><path d="M631.3 464.9m-60 0a60 60 0 1 0 120 0 60 60 0 1 0-120 0Z" fill="#719DFF" /><path d="M631.3 474m-60 0a60 60 0 1 0 120 0 60 60 0 1 0-120 0Z" fill="#729BFF" /><path d="M631.3 483m-60 0a60 60 0 1 0 120 0 60 60 0 1 0-120 0Z" fill="#7299FF" /><path d="M631.3 492.1m-60 0a60 60 0 1 0 120 0 60 60 0 1 0-120 0Z" fill="#7398FF" /><path d="M631.3 501.2m-60 0a60 60 0 1 0 120 0 60 60 0 1 0-120 0Z" fill="#7396FF" /><path d="M631.3 510.3m-60 0a60 60 0 1 0 120 0 60 60 0 1 0-120 0Z" fill="#7394FF" /><path d="M631.3 519.4m-60 0a60 60 0 1 0 120 0 60 60 0 1 0-120 0Z" fill="#7492FF" /><path d="M631.3 528.4m-60 0a60 60 0 1 0 120 0 60 60 0 1 0-120 0Z" fill="#7490FF" /><path d="M631.3 537.5m-60 0a60 60 0 1 0 120 0 60 60 0 1 0-120 0Z" fill="#758FFF" /><path d="M631.3 546.6m-60 0a60 60 0 1 0 120 0 60 60 0 1 0-120 0Z" fill="#758DFF" /><path d="M631.3 555.7m-60 0a60 60 0 1 0 120 0 60 60 0 1 0-120 0Z" fill="#768BFF" /><path d="M631.3 564.8m-60 0a60 60 0 1 0 120 0 60 60 0 1 0-120 0Z" fill="#7689FF" /><path d="M631.3 573.8m-60 0a60 60 0 1 0 120 0 60 60 0 1 0-120 0Z" fill="#7788FF" /><path d="M631.3 582.9m-60 0a60 60 0 1 0 120 0 60 60 0 1 0-120 0Z" fill="#7786FF" /><path d="M631.3 592m-60 0a60 60 0 1 0 120 0 60 60 0 1 0-120 0Z" fill="#7884FF" /><path d="M631.3 601.1m-60 0a60 60 0 1 0 120 0 60 60 0 1 0-120 0Z" fill="#7882FF" /><path d="M631.3 610.2m-60 0a60 60 0 1 0 120 0 60 60 0 1 0-120 0Z" fill="#7880FF" /><path d="M631.3 619.2m-60 0a60 60 0 1 0 120 0 60 60 0 1 0-120 0Z" fill="#797FFF" /><path d="M631.3 628.3m-60 0a60 60 0 1 0 120 0 60 60 0 1 0-120 0Z" fill="#797DFF" /><path d="M631.3 637.4m-60 0a60 60 0 1 0 120 0 60 60 0 1 0-120 0Z" fill="#7A7BFF" /><path d="M631.3 646.5m-60 0a60 60 0 1 0 120 0 60 60 0 1 0-120 0Z" fill="#7A79FF" /><path d="M631.3 655.6m-60 0a60 60 0 1 0 120 0 60 60 0 1 0-120 0Z" fill="#7B77FF" /><path d="M631.3 664.6m-60 0a60 60 0 1 0 120 0 60 60 0 1 0-120 0Z" fill="#7B76FF" /><path d="M631.3 673.7m-60 0a60 60 0 1 0 120 0 60 60 0 1 0-120 0Z" fill="#7C74FF" /><path d="M631.3 682.8m-60 0a60 60 0 1 0 120 0 60 60 0 1 0-120 0Z" fill="#7C72FF" /><path d="M631.3 691.9m-60 0a60 60 0 1 0 120 0 60 60 0 1 0-120 0Z" fill="#7D70FF" /><path d="M631.3 701m-60 0a60 60 0 1 0 120 0 60 60 0 1 0-120 0Z" fill="#7D6EFF" /><path d="M631.3 710m-60 0a60 60 0 1 0 120 0 60 60 0 1 0-120 0Z" fill="#7D6DFF" /><path d="M631.3 719.1m-60 0a60 60 0 1 0 120 0 60 60 0 1 0-120 0Z" fill="#7E6BFF" /><path d="M631.3 728.2m-60 0a60 60 0 1 0 120 0 60 60 0 1 0-120 0Z" fill="#7E69FF" /><path d="M631.3 737.3m-60 0a60 60 0 1 0 120 0 60 60 0 1 0-120 0Z" fill="#7F67FF" /><path d="M631.3 746.4m-60 0a60 60 0 1 0 120 0 60 60 0 1 0-120 0Z" fill="#7F65FF" /><path d="M631.3 755.4m-60 0a60 60 0 1 0 120 0 60 60 0 1 0-120 0Z" fill="#8064FF" /><path d="M631.3 764.5m-60 0a60 60 0 1 0 120 0 60 60 0 1 0-120 0Z" fill="#8062FF" /><path d="M631.3 773.6m-60 0a60 60 0 1 0 120 0 60 60 0 1 0-120 0Z" fill="#8160FF" /><path d="M631.3 782.7m-60 0a60 60 0 1 0 120 0 60 60 0 1 0-120 0Z" fill="#815EFF" /><path d="M631.3 791.8m-60 0a60 60 0 1 0 120 0 60 60 0 1 0-120 0Z" fill="#825DFF" /><path d="M631.3 800.8m-60 0a60 60 0 1 0 120 0 60 60 0 1 0-120 0Z" fill="#825BFF" /><path d="M631.3 809.9m-60 0a60 60 0 1 0 120 0 60 60 0 1 0-120 0Z" fill="#8259FF" /><path d="M631.3 819m-60 0a60 60 0 1 0 120 0 60 60 0 1 0-120 0Z" fill="#8357FF" /><path d="M631.3 828.1m-60 0a60 60 0 1 0 120 0 60 60 0 1 0-120 0Z" fill="#8355FF" /><path d="M631.3 837.1m-60 0a60 60 0 1 0 120 0 60 60 0 1 0-120 0Z" fill="#8454FF" /><path d="M631.3 846.2m-60 0a60 60 0 1 0 120 0 60 60 0 1 0-120 0Z" fill="#8452FF" /><path d="M631.3 855.3m-60 0a60 60 0 1 0 120 0 60 60 0 1 0-120 0Z" fill="#8550FF" /><path d="M631.3 864.4m-60 0a60 60 0 1 0 120 0 60 60 0 1 0-120 0Z" fill="#854EFF" /><path d="M631.3 873.5m-60 0a60 60 0 1 0 120 0 60 60 0 1 0-120 0Z" fill="#864CFF" /><path d="M631.3 882.5m-60 0a60 60 0 1 0 120 0 60 60 0 1 0-120 0Z" fill="#864BFF" /><path d="M631.3 891.6m-60 0a60 60 0 1 0 120 0 60 60 0 1 0-120 0Z" fill="#8749FF" /><path d="M631.3 960.7c33 0 60-27 60-60s-27-60-60-60-60 27-60 60 26.9 60 60 60z" fill="#8747FF" /></svg>