<?xml version="1.0" standalone="no"?><!DOCTYPE svg PUBLIC "-//W3C//DTD SVG 1.1//EN" "http://www.w3.org/Graphics/SVG/1.1/DTD/svg11.dtd"><svg class="icon" width="200px" height="200.00px" viewBox="0 0 1024 1024" version="1.1" xmlns="http://www.w3.org/2000/svg"><path d="M425.5 210.5c33 0 60-27 60-60s-27-60-60-60-60 27-60 60c0 33.1 27 60 60 60z" fill="#5100A1" /><path d="M430.4 149.7m-60 0a60 60 0 1 0 120 0 60 60 0 1 0-120 0Z" fill="#5104A3" /><path d="M435.2 149m-60 0a60 60 0 1 0 120 0 60 60 0 1 0-120 0Z" fill="#5108A4" /><path d="M440 148.2m-60 0a60 60 0 1 0 120 0 60 60 0 1 0-120 0Z" fill="#510CA6" /><path d="M444.9 147.4m-60 0a60 60 0 1 0 120 0 60 60 0 1 0-120 0Z" fill="#5211A7" /><path d="M449.7 146.6m-60 0a60 60 0 1 0 120 0 60 60 0 1 0-120 0Z" fill="#5215A9" /><path d="M454.5 145.8m-60 0a60 60 0 1 0 120 0 60 60 0 1 0-120 0Z" fill="#5219AA" /><path d="M459.4 145m-60 0a60 60 0 1 0 120 0 60 60 0 1 0-120 0Z" fill="#521DAC" /><path d="M464.2 144.2m-60 0a60 60 0 1 0 120 0 60 60 0 1 0-120 0Z" fill="#5221AD" /><path d="M469.1 143.4m-60 0a60 60 0 1 0 120 0 60 60 0 1 0-120 0Z" fill="#5225AF" /><path d="M473.9 142.7m-60 0a60 60 0 1 0 120 0 60 60 0 1 0-120 0Z" fill="#5229B0" /><path d="M478.7 141.9m-60 0a60 60 0 1 0 120 0 60 60 0 1 0-120 0Z" fill="#522DB2" /><path d="M483.6 141.1m-60 0a60 60 0 1 0 120 0 60 60 0 1 0-120 0Z" fill="#5332B3" /><path d="M488.4 140.3m-60 0a60 60 0 1 0 120 0 60 60 0 1 0-120 0Z" fill="#5336B5" /><path d="M493.2 139.5m-60 0a60 60 0 1 0 120 0 60 60 0 1 0-120 0Z" fill="#533AB7" /><path d="M498.1 138.7m-60 0a60 60 0 1 0 120 0 60 60 0 1 0-120 0Z" fill="#533EB8" /><path d="M502.9 137.9m-60 0a60 60 0 1 0 120 0 60 60 0 1 0-120 0Z" fill="#5342BA" /><path d="M507.8 137.1m-60 0a60 60 0 1 0 120 0 60 60 0 1 0-120 0Z" fill="#5346BB" /><path d="M512.6 136.4m-60 0a60 60 0 1 0 120 0 60 60 0 1 0-120 0Z" fill="#534ABD" /><path d="M517.4 135.6m-60 0a60 60 0 1 0 120 0 60 60 0 1 0-120 0Z" fill="#534EBE" /><path d="M522.3 134.8m-60 0a60 60 0 1 0 120 0 60 60 0 1 0-120 0Z" fill="#5453C0" /><path d="M527.1 134m-60 0a60 60 0 1 0 120 0 60 60 0 1 0-120 0Z" fill="#5457C1" /><path d="M531.9 133.2m-60 0a60 60 0 1 0 120 0 60 60 0 1 0-120 0Z" fill="#545BC3" /><path d="M536.8 132.4m-60 0a60 60 0 1 0 120 0 60 60 0 1 0-120 0Z" fill="#545FC4" /><path d="M541.6 131.6m-60 0a60 60 0 1 0 120 0 60 60 0 1 0-120 0Z" fill="#5463C6" /><path d="M546.5 130.9m-60 0a60 60 0 1 0 120 0 60 60 0 1 0-120 0Z" fill="#5467C8" /><path d="M551.3 130.1m-60 0a60 60 0 1 0 120 0 60 60 0 1 0-120 0Z" fill="#546BC9" /><path d="M556.1 129.3m-60 0a60 60 0 1 0 120 0 60 60 0 1 0-120 0Z" fill="#5570CB" /><path d="M561 128.5m-60 0a60 60 0 1 0 120 0 60 60 0 1 0-120 0Z" fill="#5574CC" /><path d="M565.8 127.7m-60 0a60 60 0 1 0 120 0 60 60 0 1 0-120 0Z" fill="#5578CE" /><path d="M570.6 126.9m-60 0a60 60 0 1 0 120 0 60 60 0 1 0-120 0Z" fill="#557CCF" /><path d="M575.5 126.1m-60 0a60 60 0 1 0 120 0 60 60 0 1 0-120 0Z" fill="#5580D1" /><path d="M580.3 125.3m-60 0a60 60 0 1 0 120 0 60 60 0 1 0-120 0Z" fill="#5584D2" /><path d="M585.2 124.6m-60 0a60 60 0 1 0 120 0 60 60 0 1 0-120 0Z" fill="#5588D4" /><path d="M590 123.8m-60 0a60 60 0 1 0 120 0 60 60 0 1 0-120 0Z" fill="#558CD5" /><path d="M594.8 123m-60 0a60 60 0 1 0 120 0 60 60 0 1 0-120 0Z" fill="#5691D7" /><path d="M598.5 123.6m-60 0a60 60 0 1 0 120 0 60 60 0 1 0-120 0Z" fill="#5695D8" /><path d="M598.5 128.5m-60 0a60 60 0 1 0 120 0 60 60 0 1 0-120 0Z" fill="#5699DA" /><path d="M598.5 133.4m-60 0a60 60 0 1 0 120 0 60 60 0 1 0-120 0Z" fill="#569DDC" /><path d="M598.5 138.3m-60 0a60 60 0 1 0 120 0 60 60 0 1 0-120 0Z" fill="#56A1DD" /><path d="M598.5 143.2m-60 0a60 60 0 1 0 120 0 60 60 0 1 0-120 0Z" fill="#56A5DF" /><path d="M598.5 148.1m-60 0a60 60 0 1 0 120 0 60 60 0 1 0-120 0Z" fill="#56A9E0" /><path d="M598.5 153m-60 0a60 60 0 1 0 120 0 60 60 0 1 0-120 0Z" fill="#57AEE2" /><path d="M598.5 157.9m-60 0a60 60 0 1 0 120 0 60 60 0 1 0-120 0Z" fill="#57B2E3" /><path d="M598.5 162.8m-60 0a60 60 0 1 0 120 0 60 60 0 1 0-120 0Z" fill="#57B6E5" /><path d="M598.5 167.7m-60 0a60 60 0 1 0 120 0 60 60 0 1 0-120 0Z" fill="#57BAE6" /><path d="M598.5 172.6m-60 0a60 60 0 1 0 120 0 60 60 0 1 0-120 0Z" fill="#57BEE8" /><path d="M598.5 177.5m-60 0a60 60 0 1 0 120 0 60 60 0 1 0-120 0Z" fill="#57C2E9" /><path d="M598.5 182.4m-60 0a60 60 0 1 0 120 0 60 60 0 1 0-120 0Z" fill="#57C6EB" /><path d="M598.5 187.3m-60 0a60 60 0 1 0 120 0 60 60 0 1 0-120 0Z" fill="#57CAED" /><path d="M598.5 192.2m-60 0a60 60 0 1 0 120 0 60 60 0 1 0-120 0Z" fill="#58CFEE" /><path d="M598.5 197.1m-60 0a60 60 0 1 0 120 0 60 60 0 1 0-120 0Z" fill="#58D3F0" /><path d="M598.5 202m-60 0a60 60 0 1 0 120 0 60 60 0 1 0-120 0Z" fill="#58D7F1" /><path d="M598.5 206.9m-60 0a60 60 0 1 0 120 0 60 60 0 1 0-120 0Z" fill="#58DBF3" /><path d="M598.5 211.8m-60 0a60 60 0 1 0 120 0 60 60 0 1 0-120 0Z" fill="#58DFF4" /><path d="M598.5 216.7m-60 0a60 60 0 1 0 120 0 60 60 0 1 0-120 0Z" fill="#58E3F6" /><path d="M598.5 221.6m-60 0a60 60 0 1 0 120 0 60 60 0 1 0-120 0Z" fill="#58E7F7" /><path d="M598.5 226.5m-60 0a60 60 0 1 0 120 0 60 60 0 1 0-120 0Z" fill="#58EBF9" /><path d="M598.5 231.4m-60 0a60 60 0 1 0 120 0 60 60 0 1 0-120 0Z" fill="#59F0FA" /><path d="M598.5 236.3m-60 0a60 60 0 1 0 120 0 60 60 0 1 0-120 0Z" fill="#59F4FC" /><path d="M598.5 241.2m-60 0a60 60 0 1 0 120 0 60 60 0 1 0-120 0Z" fill="#59F8FD" /><path d="M598.5 306.1c33 0 60-27 60-60s-27-60-60-60-60 27-60 60c0 33.1 26.9 60 60 60z" fill="#59FCFF" /><path d="M598.5 250.8m-60 0a60 60 0 1 0 120 0 60 60 0 1 0-120 0Z" fill="#59FBFF" /><path d="M598.5 255.4m-60 0a60 60 0 1 0 120 0 60 60 0 1 0-120 0Z" fill="#5AF9FF" /><path d="M598.5 260.1m-60 0a60 60 0 1 0 120 0 60 60 0 1 0-120 0Z" fill="#5AF8FF" /><path d="M598.5 264.7m-60 0a60 60 0 1 0 120 0 60 60 0 1 0-120 0Z" fill="#5AF7FF" /><path d="M598.5 269.4m-60 0a60 60 0 1 0 120 0 60 60 0 1 0-120 0Z" fill="#5BF6FF" /><path d="M598.5 274m-60 0a60 60 0 1 0 120 0 60 60 0 1 0-120 0Z" fill="#5BF4FF" /><path d="M598.5 278.6m-60 0a60 60 0 1 0 120 0 60 60 0 1 0-120 0Z" fill="#5BF3FF" /><path d="M598.5 283.3m-60 0a60 60 0 1 0 120 0 60 60 0 1 0-120 0Z" fill="#5CF2FF" /><path d="M598.5 287.9m-60 0a60 60 0 1 0 120 0 60 60 0 1 0-120 0Z" fill="#5CF0FF" /><path d="M598.5 292.6m-60 0a60 60 0 1 0 120 0 60 60 0 1 0-120 0Z" fill="#5CEFFF" /><path d="M598.5 297.2m-60 0a60 60 0 1 0 120 0 60 60 0 1 0-120 0Z" fill="#5DEEFF" /><path d="M598.5 301.9m-60 0a60 60 0 1 0 120 0 60 60 0 1 0-120 0Z" fill="#5DEDFF" /><path d="M598.5 306.5m-60 0a60 60 0 1 0 120 0 60 60 0 1 0-120 0Z" fill="#5DEBFF" /><path d="M598.5 311.2m-60 0a60 60 0 1 0 120 0 60 60 0 1 0-120 0Z" fill="#5EEAFF" /><path d="M598.5 315.8m-60 0a60 60 0 1 0 120 0 60 60 0 1 0-120 0Z" fill="#5EE9FF" /><path d="M598.5 320.4m-60 0a60 60 0 1 0 120 0 60 60 0 1 0-120 0Z" fill="#5EE7FF" /><path d="M598.5 325.1m-60 0a60 60 0 1 0 120 0 60 60 0 1 0-120 0Z" fill="#5FE6FF" /><path d="M598.5 329.7m-60 0a60 60 0 1 0 120 0 60 60 0 1 0-120 0Z" fill="#5FE5FF" /><path d="M598.5 334.4m-60 0a60 60 0 1 0 120 0 60 60 0 1 0-120 0Z" fill="#5FE4FF" /><path d="M598.5 339m-60 0a60 60 0 1 0 120 0 60 60 0 1 0-120 0Z" fill="#60E2FF" /><path d="M598.5 343.7m-60 0a60 60 0 1 0 120 0 60 60 0 1 0-120 0Z" fill="#60E1FF" /><path d="M598.5 348.3m-60 0a60 60 0 1 0 120 0 60 60 0 1 0-120 0Z" fill="#60E0FF" /><path d="M598.5 353m-60 0a60 60 0 1 0 120 0 60 60 0 1 0-120 0Z" fill="#61DEFF" /><path d="M598.5 357.6m-60 0a60 60 0 1 0 120 0 60 60 0 1 0-120 0Z" fill="#61DDFF" /><path d="M598.5 362.2m-60 0a60 60 0 1 0 120 0 60 60 0 1 0-120 0Z" fill="#61DCFF" /><path d="M598.5 366.9m-60 0a60 60 0 1 0 120 0 60 60 0 1 0-120 0Z" fill="#61DBFF" /><path d="M598.5 371.5m-60 0a60 60 0 1 0 120 0 60 60 0 1 0-120 0Z" fill="#62D9FF" /><path d="M598.5 376.2m-60 0a60 60 0 1 0 120 0 60 60 0 1 0-120 0Z" fill="#62D8FF" /><path d="M598.5 380.8m-60 0a60 60 0 1 0 120 0 60 60 0 1 0-120 0Z" fill="#62D7FF" /><path d="M598.5 385.5m-60 0a60 60 0 1 0 120 0 60 60 0 1 0-120 0Z" fill="#63D5FF" /><path d="M598.5 390.1m-60 0a60 60 0 1 0 120 0 60 60 0 1 0-120 0Z" fill="#63D4FF" /><path d="M598.5 394.8m-60 0a60 60 0 1 0 120 0 60 60 0 1 0-120 0Z" fill="#63D3FF" /><path d="M598.5 399.4m-60 0a60 60 0 1 0 120 0 60 60 0 1 0-120 0Z" fill="#64D2FF" /><path d="M598.5 404m-60 0a60 60 0 1 0 120 0 60 60 0 1 0-120 0Z" fill="#64D0FF" /><path d="M598.5 408.7m-60 0a60 60 0 1 0 120 0 60 60 0 1 0-120 0Z" fill="#64CFFF" /><path d="M598.5 413.3m-60 0a60 60 0 1 0 120 0 60 60 0 1 0-120 0Z" fill="#65CEFF" /><path d="M598.5 418m-60 0a60 60 0 1 0 120 0 60 60 0 1 0-120 0Z" fill="#65CDFF" /><path d="M598.5 422.6m-60 0a60 60 0 1 0 120 0 60 60 0 1 0-120 0Z" fill="#65CBFF" /><path d="M598.5 427.3m-60 0a60 60 0 1 0 120 0 60 60 0 1 0-120 0Z" fill="#66CAFF" /><path d="M598.5 431.9m-60 0a60 60 0 1 0 120 0 60 60 0 1 0-120 0Z" fill="#66C9FF" /><path d="M598.5 436.6m-60 0a60 60 0 1 0 120 0 60 60 0 1 0-120 0Z" fill="#66C7FF" /><path d="M598.5 441.2m-60 0a60 60 0 1 0 120 0 60 60 0 1 0-120 0Z" fill="#67C6FF" /><path d="M598.5 445.8m-60 0a60 60 0 1 0 120 0 60 60 0 1 0-120 0Z" fill="#67C5FF" /><path d="M598.5 450.5m-60 0a60 60 0 1 0 120 0 60 60 0 1 0-120 0Z" fill="#67C4FF" /><path d="M598.5 455.1m-60 0a60 60 0 1 0 120 0 60 60 0 1 0-120 0Z" fill="#68C2FF" /><path d="M598.5 459.8m-60 0a60 60 0 1 0 120 0 60 60 0 1 0-120 0Z" fill="#68C1FF" /><path d="M598.5 464.4m-60 0a60 60 0 1 0 120 0 60 60 0 1 0-120 0Z" fill="#68C0FF" /><path d="M598.5 469.1m-60 0a60 60 0 1 0 120 0 60 60 0 1 0-120 0Z" fill="#69BEFF" /><path d="M598.5 473.7m-60 0a60 60 0 1 0 120 0 60 60 0 1 0-120 0Z" fill="#69BDFF" /><path d="M598.5 478.4m-60 0a60 60 0 1 0 120 0 60 60 0 1 0-120 0Z" fill="#69BCFF" /><path d="M598.5 483m-60 0a60 60 0 1 0 120 0 60 60 0 1 0-120 0Z" fill="#6ABBFF" /><path d="M598.5 487.7m-60 0a60 60 0 1 0 120 0 60 60 0 1 0-120 0Z" fill="#6AB9FF" /><path d="M598.5 492.3m-60 0a60 60 0 1 0 120 0 60 60 0 1 0-120 0Z" fill="#6AB8FF" /><path d="M598.5 496.9m-60 0a60 60 0 1 0 120 0 60 60 0 1 0-120 0Z" fill="#6BB7FF" /><path d="M598.5 501.6m-60 0a60 60 0 1 0 120 0 60 60 0 1 0-120 0Z" fill="#6BB5FF" /><path d="M598.5 506.2m-60 0a60 60 0 1 0 120 0 60 60 0 1 0-120 0Z" fill="#6BB4FF" /><path d="M598.5 510.9m-60 0a60 60 0 1 0 120 0 60 60 0 1 0-120 0Z" fill="#6CB3FF" /><path d="M598.5 515.5m-60 0a60 60 0 1 0 120 0 60 60 0 1 0-120 0Z" fill="#6CB2FF" /><path d="M598.5 520.2m-60 0a60 60 0 1 0 120 0 60 60 0 1 0-120 0Z" fill="#6CB0FF" /><path d="M598.5 524.8m-60 0a60 60 0 1 0 120 0 60 60 0 1 0-120 0Z" fill="#6DAFFF" /><path d="M598.5 529.5m-60 0a60 60 0 1 0 120 0 60 60 0 1 0-120 0Z" fill="#6DAEFF" /><path d="M598.5 534.1m-60 0a60 60 0 1 0 120 0 60 60 0 1 0-120 0Z" fill="#6DACFF" /><path d="M598.5 538.7m-60 0a60 60 0 1 0 120 0 60 60 0 1 0-120 0Z" fill="#6EABFF" /><path d="M598.5 543.4m-60 0a60 60 0 1 0 120 0 60 60 0 1 0-120 0Z" fill="#6EAAFF" /><path d="M598.5 548m-60 0a60 60 0 1 0 120 0 60 60 0 1 0-120 0Z" fill="#6EA9FF" /><path d="M598.5 552.7m-60 0a60 60 0 1 0 120 0 60 60 0 1 0-120 0Z" fill="#6FA7FF" /><path d="M598.5 557.3m-60 0a60 60 0 1 0 120 0 60 60 0 1 0-120 0Z" fill="#6FA6FF" /><path d="M598.5 562m-60 0a60 60 0 1 0 120 0 60 60 0 1 0-120 0Z" fill="#6FA5FF" /><path d="M598.5 566.6m-60 0a60 60 0 1 0 120 0 60 60 0 1 0-120 0Z" fill="#70A3FF" /><path d="M598.5 571.3m-60 0a60 60 0 1 0 120 0 60 60 0 1 0-120 0Z" fill="#70A2FF" /><path d="M598.5 575.9m-60 0a60 60 0 1 0 120 0 60 60 0 1 0-120 0Z" fill="#70A1FF" /><path d="M598.5 580.5m-60 0a60 60 0 1 0 120 0 60 60 0 1 0-120 0Z" fill="#70A0FF" /><path d="M598.5 585.2m-60 0a60 60 0 1 0 120 0 60 60 0 1 0-120 0Z" fill="#719EFF" /><path d="M598.5 589.8m-60 0a60 60 0 1 0 120 0 60 60 0 1 0-120 0Z" fill="#719DFF" /><path d="M598.5 594.5m-60 0a60 60 0 1 0 120 0 60 60 0 1 0-120 0Z" fill="#719CFF" /><path d="M598.5 599.1m-60 0a60 60 0 1 0 120 0 60 60 0 1 0-120 0Z" fill="#729AFF" /><path d="M598.5 603.8m-60 0a60 60 0 1 0 120 0 60 60 0 1 0-120 0Z" fill="#7299FF" /><path d="M598.5 608.4m-60 0a60 60 0 1 0 120 0 60 60 0 1 0-120 0Z" fill="#7298FF" /><path d="M598.5 613.1m-60 0a60 60 0 1 0 120 0 60 60 0 1 0-120 0Z" fill="#7397FF" /><path d="M598.5 617.7m-60 0a60 60 0 1 0 120 0 60 60 0 1 0-120 0Z" fill="#7395FF" /><path d="M598.5 622.3m-60 0a60 60 0 1 0 120 0 60 60 0 1 0-120 0Z" fill="#7394FF" /><path d="M598.5 627m-60 0a60 60 0 1 0 120 0 60 60 0 1 0-120 0Z" fill="#7493FF" /><path d="M598.5 631.6m-60 0a60 60 0 1 0 120 0 60 60 0 1 0-120 0Z" fill="#7491FF" /><path d="M598.5 636.3m-60 0a60 60 0 1 0 120 0 60 60 0 1 0-120 0Z" fill="#7490FF" /><path d="M598.5 640.9m-60 0a60 60 0 1 0 120 0 60 60 0 1 0-120 0Z" fill="#758FFF" /><path d="M598.5 645.6m-60 0a60 60 0 1 0 120 0 60 60 0 1 0-120 0Z" fill="#758EFF" /><path d="M598.5 650.2m-60 0a60 60 0 1 0 120 0 60 60 0 1 0-120 0Z" fill="#758CFF" /><path d="M598.5 654.9m-60 0a60 60 0 1 0 120 0 60 60 0 1 0-120 0Z" fill="#768BFF" /><path d="M598.5 659.5m-60 0a60 60 0 1 0 120 0 60 60 0 1 0-120 0Z" fill="#768AFF" /><path d="M598.5 664.1m-60 0a60 60 0 1 0 120 0 60 60 0 1 0-120 0Z" fill="#7688FF" /><path d="M598.5 668.8m-60 0a60 60 0 1 0 120 0 60 60 0 1 0-120 0Z" fill="#7787FF" /><path d="M598.5 673.4m-60 0a60 60 0 1 0 120 0 60 60 0 1 0-120 0Z" fill="#7786FF" /><path d="M598.5 678.1m-60 0a60 60 0 1 0 120 0 60 60 0 1 0-120 0Z" fill="#7785FF" /><path d="M598.5 682.7m-60 0a60 60 0 1 0 120 0 60 60 0 1 0-120 0Z" fill="#7883FF" /><path d="M598.5 687.4m-60 0a60 60 0 1 0 120 0 60 60 0 1 0-120 0Z" fill="#7882FF" /><path d="M598.5 692m-60 0a60 60 0 1 0 120 0 60 60 0 1 0-120 0Z" fill="#7881FF" /><path d="M598.5 696.7m-60 0a60 60 0 1 0 120 0 60 60 0 1 0-120 0Z" fill="#797FFF" /><path d="M598.5 701.3m-60 0a60 60 0 1 0 120 0 60 60 0 1 0-120 0Z" fill="#797EFF" /><path d="M598.5 705.9m-60 0a60 60 0 1 0 120 0 60 60 0 1 0-120 0Z" fill="#797DFF" /><path d="M598.5 710.6m-60 0a60 60 0 1 0 120 0 60 60 0 1 0-120 0Z" fill="#7A7CFF" /><path d="M598.5 715.2m-60 0a60 60 0 1 0 120 0 60 60 0 1 0-120 0Z" fill="#7A7AFF" /><path d="M598.5 719.9m-60 0a60 60 0 1 0 120 0 60 60 0 1 0-120 0Z" fill="#7A79FF" /><path d="M598.5 724.5m-60 0a60 60 0 1 0 120 0 60 60 0 1 0-120 0Z" fill="#7B78FF" /><path d="M598.5 729.2m-60 0a60 60 0 1 0 120 0 60 60 0 1 0-120 0Z" fill="#7B76FF" /><path d="M598.5 733.8m-60 0a60 60 0 1 0 120 0 60 60 0 1 0-120 0Z" fill="#7B75FF" /><path d="M598.5 738.5m-60 0a60 60 0 1 0 120 0 60 60 0 1 0-120 0Z" fill="#7C74FF" /><path d="M598.5 743.1m-60 0a60 60 0 1 0 120 0 60 60 0 1 0-120 0Z" fill="#7C73FF" /><path d="M598.5 747.7m-60 0a60 60 0 1 0 120 0 60 60 0 1 0-120 0Z" fill="#7C71FF" /><path d="M598.5 752.4m-60 0a60 60 0 1 0 120 0 60 60 0 1 0-120 0Z" fill="#7D70FF" /><path d="M598.5 757m-60 0a60 60 0 1 0 120 0 60 60 0 1 0-120 0Z" fill="#7D6FFF" /><path d="M598.5 761.7m-60 0a60 60 0 1 0 120 0 60 60 0 1 0-120 0Z" fill="#7D6EFF" /><path d="M598.5 766.3m-60 0a60 60 0 1 0 120 0 60 60 0 1 0-120 0Z" fill="#7E6CFF" /><path d="M598.5 771m-60 0a60 60 0 1 0 120 0 60 60 0 1 0-120 0Z" fill="#7E6BFF" /><path d="M598.5 775.6m-60 0a60 60 0 1 0 120 0 60 60 0 1 0-120 0Z" fill="#7E6AFF" /><path d="M598.5 780.3m-60 0a60 60 0 1 0 120 0 60 60 0 1 0-120 0Z" fill="#7F68FF" /><path d="M598.5 784.9m-60 0a60 60 0 1 0 120 0 60 60 0 1 0-120 0Z" fill="#7F67FF" /><path d="M598.5 789.5m-60 0a60 60 0 1 0 120 0 60 60 0 1 0-120 0Z" fill="#7F66FF" /><path d="M598.5 794.2m-60 0a60 60 0 1 0 120 0 60 60 0 1 0-120 0Z" fill="#7F65FF" /><path d="M598.5 798.8m-60 0a60 60 0 1 0 120 0 60 60 0 1 0-120 0Z" fill="#8063FF" /><path d="M598.5 803.5m-60 0a60 60 0 1 0 120 0 60 60 0 1 0-120 0Z" fill="#8062FF" /><path d="M598.5 808.1m-60 0a60 60 0 1 0 120 0 60 60 0 1 0-120 0Z" fill="#8061FF" /><path d="M598.5 812.8m-60 0a60 60 0 1 0 120 0 60 60 0 1 0-120 0Z" fill="#815FFF" /><path d="M598.5 817.4m-60 0a60 60 0 1 0 120 0 60 60 0 1 0-120 0Z" fill="#815EFF" /><path d="M598.5 822.1m-60 0a60 60 0 1 0 120 0 60 60 0 1 0-120 0Z" fill="#815DFF" /><path d="M598.5 826.7m-60 0a60 60 0 1 0 120 0 60 60 0 1 0-120 0Z" fill="#825CFF" /><path d="M598.5 831.3m-60 0a60 60 0 1 0 120 0 60 60 0 1 0-120 0Z" fill="#825AFF" /><path d="M598.5 836m-60 0a60 60 0 1 0 120 0 60 60 0 1 0-120 0Z" fill="#8259FF" /><path d="M598.5 840.6m-60 0a60 60 0 1 0 120 0 60 60 0 1 0-120 0Z" fill="#8358FF" /><path d="M598.5 845.3m-60 0a60 60 0 1 0 120 0 60 60 0 1 0-120 0Z" fill="#8356FF" /><path d="M598.5 849.9m-60 0a60 60 0 1 0 120 0 60 60 0 1 0-120 0Z" fill="#8355FF" /><path d="M598.5 854.6m-60 0a60 60 0 1 0 120 0 60 60 0 1 0-120 0Z" fill="#8454FF" /><path d="M598.5 859.2m-60 0a60 60 0 1 0 120 0 60 60 0 1 0-120 0Z" fill="#8453FF" /><path d="M598.5 863.9m-60 0a60 60 0 1 0 120 0 60 60 0 1 0-120 0Z" fill="#8451FF" /><path d="M598.5 868.5m-60 0a60 60 0 1 0 120 0 60 60 0 1 0-120 0Z" fill="#8550FF" /><path d="M598.5 873.2m-60 0a60 60 0 1 0 120 0 60 60 0 1 0-120 0Z" fill="#854FFF" /><path d="M598.5 877.8m-60 0a60 60 0 1 0 120 0 60 60 0 1 0-120 0Z" fill="#854DFF" /><path d="M598.5 882.4m-60 0a60 60 0 1 0 120 0 60 60 0 1 0-120 0Z" fill="#864CFF" /><path d="M598.5 887.1m-60 0a60 60 0 1 0 120 0 60 60 0 1 0-120 0Z" fill="#864BFF" /><path d="M598.5 891.7m-60 0a60 60 0 1 0 120 0 60 60 0 1 0-120 0Z" fill="#864AFF" /><path d="M598.5 896.4m-60 0a60 60 0 1 0 120 0 60 60 0 1 0-120 0Z" fill="#8748FF" /><path d="M598.5 961c33 0 60-27 60-60s-27-60-60-60-60 27-60 60c0 33.1 26.9 60 60 60z" fill="#8747FF" /></svg>