<?xml version="1.0" standalone="no"?><!DOCTYPE svg PUBLIC "-//W3C//DTD SVG 1.1//EN" "http://www.w3.org/Graphics/SVG/1.1/DTD/svg11.dtd"><svg class="icon" width="200px" height="200.00px" viewBox="0 0 1024 1024" version="1.1" xmlns="http://www.w3.org/2000/svg"><path d="M511.2 175c33 0 60-27 60-60s-27-60-60-60-60 27-60 60c0 33.1 26.9 60 60 60z" fill="#5100A1" /><path d="M502.8 115.3m-60 0a60 60 0 1 0 120 0 60 60 0 1 0-120 0Z" fill="#5102A2" /><path d="M494.4 115.7m-60 0a60 60 0 1 0 120 0 60 60 0 1 0-120 0Z" fill="#5105A3" /><path d="M486.1 116.5m-60 0a60 60 0 1 0 120 0 60 60 0 1 0-120 0Z" fill="#5107A4" /><path d="M477.8 117.4m-60 0a60 60 0 1 0 120 0 60 60 0 1 0-120 0Z" fill="#510AA5" /><path d="M469.5 118.8m-60 0a60 60 0 1 0 120 0 60 60 0 1 0-120 0Z" fill="#510CA6" /><path d="M461.2 120.3m-60 0a60 60 0 1 0 120 0 60 60 0 1 0-120 0Z" fill="#510FA7" /><path d="M453.1 122.2m-60 0a60 60 0 1 0 120 0 60 60 0 1 0-120 0Z" fill="#5211A8" /><path d="M445 124.4m-60 0a60 60 0 1 0 120 0 60 60 0 1 0-120 0Z" fill="#5214A8" /><path d="M436.9 126.7m-60 0a60 60 0 1 0 120 0 60 60 0 1 0-120 0Z" fill="#5216A9" /><path d="M429 129.4m-60 0a60 60 0 1 0 120 0 60 60 0 1 0-120 0Z" fill="#5219AA" /><path d="M421.1 132.3m-60 0a60 60 0 1 0 120 0 60 60 0 1 0-120 0Z" fill="#521BAB" /><path d="M413.4 135.5m-60 0a60 60 0 1 0 120 0 60 60 0 1 0-120 0Z" fill="#521EAC" /><path d="M405.7 138.8m-60 0a60 60 0 1 0 120 0 60 60 0 1 0-120 0Z" fill="#5220AD" /><path d="M398.2 142.6m-60 0a60 60 0 1 0 120 0 60 60 0 1 0-120 0Z" fill="#5223AE" /><path d="M390.7 146.4m-60 0a60 60 0 1 0 120 0 60 60 0 1 0-120 0Z" fill="#5225AF" /><path d="M383.4 150.6m-60 0a60 60 0 1 0 120 0 60 60 0 1 0-120 0Z" fill="#5228B0" /><path d="M376.2 154.8m-60 0a60 60 0 1 0 120 0 60 60 0 1 0-120 0Z" fill="#522AB1" /><path d="M369.2 159.4m-60 0a60 60 0 1 0 120 0 60 60 0 1 0-120 0Z" fill="#522DB2" /><path d="M362.2 164.1m-60 0a60 60 0 1 0 120 0 60 60 0 1 0-120 0Z" fill="#532FB3" /><path d="M355.5 169.1m-60 0a60 60 0 1 0 120 0 60 60 0 1 0-120 0Z" fill="#5332B4" /><path d="M348.8 174.1m-60 0a60 60 0 1 0 120 0 60 60 0 1 0-120 0Z" fill="#5334B5" /><path d="M342.3 179.4m-60 0a60 60 0 1 0 120 0 60 60 0 1 0-120 0Z" fill="#5337B5" /><path d="M335.9 184.9m-60 0a60 60 0 1 0 120 0 60 60 0 1 0-120 0Z" fill="#5339B6" /><path d="M329.7 190.5m-60 0a60 60 0 1 0 120 0 60 60 0 1 0-120 0Z" fill="#533CB7" /><path d="M323.6 196.3m-60 0a60 60 0 1 0 120 0 60 60 0 1 0-120 0Z" fill="#533EB8" /><path d="M317.7 202.2m-60 0a60 60 0 1 0 120 0 60 60 0 1 0-120 0Z" fill="#5341B9" /><path d="M311.9 208.3m-60 0a60 60 0 1 0 120 0 60 60 0 1 0-120 0Z" fill="#5343BA" /><path d="M306.3 214.5m-60 0a60 60 0 1 0 120 0 60 60 0 1 0-120 0Z" fill="#5346BB" /><path d="M300.8 220.8m-60 0a60 60 0 1 0 120 0 60 60 0 1 0-120 0Z" fill="#5348BC" /><path d="M295.5 227.3m-60 0a60 60 0 1 0 120 0 60 60 0 1 0-120 0Z" fill="#534BBD" /><path d="M290.2 233.9m-60 0a60 60 0 1 0 120 0 60 60 0 1 0-120 0Z" fill="#534DBE" /><path d="M285.2 240.6m-60 0a60 60 0 1 0 120 0 60 60 0 1 0-120 0Z" fill="#5450BF" /><path d="M280.3 247.4m-60 0a60 60 0 1 0 120 0 60 60 0 1 0-120 0Z" fill="#5452C0" /><path d="M275.6 254.3m-60 0a60 60 0 1 0 120 0 60 60 0 1 0-120 0Z" fill="#5455C1" /><path d="M271 261.3m-60 0a60 60 0 1 0 120 0 60 60 0 1 0-120 0Z" fill="#5457C2" /><path d="M266.6 268.5m-60 0a60 60 0 1 0 120 0 60 60 0 1 0-120 0Z" fill="#545AC3" /><path d="M262.2 275.6m-60 0a60 60 0 1 0 120 0 60 60 0 1 0-120 0Z" fill="#545CC3" /><path d="M258.2 283m-60 0a60 60 0 1 0 120 0 60 60 0 1 0-120 0Z" fill="#545FC4" /><path d="M254.1 290.3m-60 0a60 60 0 1 0 120 0 60 60 0 1 0-120 0Z" fill="#5461C5" /><path d="M250.3 297.8m-60 0a60 60 0 1 0 120 0 60 60 0 1 0-120 0Z" fill="#5464C6" /><path d="M246.6 305.3m-60 0a60 60 0 1 0 120 0 60 60 0 1 0-120 0Z" fill="#5466C7" /><path d="M243.1 312.9m-60 0a60 60 0 1 0 120 0 60 60 0 1 0-120 0Z" fill="#5469C8" /><path d="M239.6 320.6m-60 0a60 60 0 1 0 120 0 60 60 0 1 0-120 0Z" fill="#546BC9" /><path d="M236.4 328.3m-60 0a60 60 0 1 0 120 0 60 60 0 1 0-120 0Z" fill="#546ECA" /><path d="M233.3 336.1m-60 0a60 60 0 1 0 120 0 60 60 0 1 0-120 0Z" fill="#5570CB" /><path d="M230.4 343.9m-60 0a60 60 0 1 0 120 0 60 60 0 1 0-120 0Z" fill="#5573CC" /><path d="M227.6 351.8m-60 0a60 60 0 1 0 120 0 60 60 0 1 0-120 0Z" fill="#5575CD" /><path d="M224.8 359.8m-60 0a60 60 0 1 0 120 0 60 60 0 1 0-120 0Z" fill="#5578CE" /><path d="M222.4 367.8m-60 0a60 60 0 1 0 120 0 60 60 0 1 0-120 0Z" fill="#557ACF" /><path d="M219.9 375.8m-60 0a60 60 0 1 0 120 0 60 60 0 1 0-120 0Z" fill="#557DD0" /><path d="M217.8 383.9m-60 0a60 60 0 1 0 120 0 60 60 0 1 0-120 0Z" fill="#557FD0" /><path d="M215.6 392m-60 0a60 60 0 1 0 120 0 60 60 0 1 0-120 0Z" fill="#5582D1" /><path d="M213.7 400.2m-60 0a60 60 0 1 0 120 0 60 60 0 1 0-120 0Z" fill="#5584D2" /><path d="M211.9 408.4m-60 0a60 60 0 1 0 120 0 60 60 0 1 0-120 0Z" fill="#5587D3" /><path d="M210.2 416.6m-60 0a60 60 0 1 0 120 0 60 60 0 1 0-120 0Z" fill="#5589D4" /><path d="M208.7 424.8m-60 0a60 60 0 1 0 120 0 60 60 0 1 0-120 0Z" fill="#558CD5" /><path d="M207.3 433.1m-60 0a60 60 0 1 0 120 0 60 60 0 1 0-120 0Z" fill="#568ED6" /><path d="M206.1 441.4m-60 0a60 60 0 1 0 120 0 60 60 0 1 0-120 0Z" fill="#5691D7" /><path d="M205 449.7m-60 0a60 60 0 1 0 120 0 60 60 0 1 0-120 0Z" fill="#5693D8" /><path d="M204.1 458m-60 0a60 60 0 1 0 120 0 60 60 0 1 0-120 0Z" fill="#5696D9" /><path d="M203.2 466.4m-60 0a60 60 0 1 0 120 0 60 60 0 1 0-120 0Z" fill="#5698DA" /><path d="M202.5 474.7m-60 0a60 60 0 1 0 120 0 60 60 0 1 0-120 0Z" fill="#569BDB" /><path d="M202 483.1m-60 0a60 60 0 1 0 120 0 60 60 0 1 0-120 0Z" fill="#569DDC" /><path d="M201.5 491.5m-60 0a60 60 0 1 0 120 0 60 60 0 1 0-120 0Z" fill="#56A0DD" /><path d="M201.4 499.9m-60 0a60 60 0 1 0 120 0 60 60 0 1 0-120 0Z" fill="#56A2DD" /><path d="M201.2 508.2m-60 0a60 60 0 1 0 120 0 60 60 0 1 0-120 0Z" fill="#56A5DE" /><path d="M201.2 516.6m-60 0a60 60 0 1 0 120 0 60 60 0 1 0-120 0Z" fill="#56A7DF" /><path d="M201.4 525m-60 0a60 60 0 1 0 120 0 60 60 0 1 0-120 0Z" fill="#56AAE0" /><path d="M201.6 533.4m-60 0a60 60 0 1 0 120 0 60 60 0 1 0-120 0Z" fill="#56ACE1" /><path d="M202.1 541.8m-60 0a60 60 0 1 0 120 0 60 60 0 1 0-120 0Z" fill="#57AFE2" /><path d="M202.6 550.1m-60 0a60 60 0 1 0 120 0 60 60 0 1 0-120 0Z" fill="#57B1E3" /><path d="M203.3 558.5m-60 0a60 60 0 1 0 120 0 60 60 0 1 0-120 0Z" fill="#57B4E4" /><path d="M204.1 566.8m-60 0a60 60 0 1 0 120 0 60 60 0 1 0-120 0Z" fill="#57B6E5" /><path d="M205.1 575.2m-60 0a60 60 0 1 0 120 0 60 60 0 1 0-120 0Z" fill="#57B9E6" /><path d="M206.2 583.5m-60 0a60 60 0 1 0 120 0 60 60 0 1 0-120 0Z" fill="#57BBE7" /><path d="M207.4 591.8m-60 0a60 60 0 1 0 120 0 60 60 0 1 0-120 0Z" fill="#57BEE8" /><path d="M208.9 600m-60 0a60 60 0 1 0 120 0 60 60 0 1 0-120 0Z" fill="#57C0E9" /><path d="M210.4 608.3m-60 0a60 60 0 1 0 120 0 60 60 0 1 0-120 0Z" fill="#57C3EA" /><path d="M212.1 616.5m-60 0a60 60 0 1 0 120 0 60 60 0 1 0-120 0Z" fill="#57C5EB" /><path d="M213.9 624.7m-60 0a60 60 0 1 0 120 0 60 60 0 1 0-120 0Z" fill="#57C8EB" /><path d="M215.8 632.8m-60 0a60 60 0 1 0 120 0 60 60 0 1 0-120 0Z" fill="#57CAEC" /><path d="M218 640.9m-60 0a60 60 0 1 0 120 0 60 60 0 1 0-120 0Z" fill="#57CDED" /><path d="M220.1 649m-60 0a60 60 0 1 0 120 0 60 60 0 1 0-120 0Z" fill="#58CFEE" /><path d="M222.6 657.1m-60 0a60 60 0 1 0 120 0 60 60 0 1 0-120 0Z" fill="#58D2EF" /><path d="M225.1 665.1m-60 0a60 60 0 1 0 120 0 60 60 0 1 0-120 0Z" fill="#58D4F0" /><path d="M227.8 673m-60 0a60 60 0 1 0 120 0 60 60 0 1 0-120 0Z" fill="#58D7F1" /><path d="M230.6 680.9m-60 0a60 60 0 1 0 120 0 60 60 0 1 0-120 0Z" fill="#58D9F2" /><path d="M233.6 688.7m-60 0a60 60 0 1 0 120 0 60 60 0 1 0-120 0Z" fill="#58DCF3" /><path d="M236.7 696.5m-60 0a60 60 0 1 0 120 0 60 60 0 1 0-120 0Z" fill="#58DEF4" /><path d="M240 704.3m-60 0a60 60 0 1 0 120 0 60 60 0 1 0-120 0Z" fill="#58E1F5" /><path d="M243.4 711.9m-60 0a60 60 0 1 0 120 0 60 60 0 1 0-120 0Z" fill="#58E3F6" /><path d="M246.9 719.5m-60 0a60 60 0 1 0 120 0 60 60 0 1 0-120 0Z" fill="#58E6F7" /><path d="M250.7 727m-60 0a60 60 0 1 0 120 0 60 60 0 1 0-120 0Z" fill="#58E8F8" /><path d="M254.5 734.5m-60 0a60 60 0 1 0 120 0 60 60 0 1 0-120 0Z" fill="#58EBF8" /><path d="M258.5 741.8m-60 0a60 60 0 1 0 120 0 60 60 0 1 0-120 0Z" fill="#59EDF9" /><path d="M262.6 749.2m-60 0a60 60 0 1 0 120 0 60 60 0 1 0-120 0Z" fill="#59F0FA" /><path d="M267 756.3m-60 0a60 60 0 1 0 120 0 60 60 0 1 0-120 0Z" fill="#59F2FB" /><path d="M271.4 763.4m-60 0a60 60 0 1 0 120 0 60 60 0 1 0-120 0Z" fill="#59F5FC" /><path d="M276 770.4m-60 0a60 60 0 1 0 120 0 60 60 0 1 0-120 0Z" fill="#59F7FD" /><path d="M280.7 777.4m-60 0a60 60 0 1 0 120 0 60 60 0 1 0-120 0Z" fill="#59FAFE" /><path d="M285.7 844.1c33 0 60-27 60-60s-27-60-60-60-60 27-60 60c0 33.1 26.9 60 60 60z" fill="#59FCFF" /><path d="M294 795m-60 0a60 60 0 1 0 120 0 60 60 0 1 0-120 0Z" fill="#59FAFF" /><path d="M302.6 805.5m-60 0a60 60 0 1 0 120 0 60 60 0 1 0-120 0Z" fill="#5AF8FF" /><path d="M311.7 815.7m-60 0a60 60 0 1 0 120 0 60 60 0 1 0-120 0Z" fill="#5AF7FF" /><path d="M321.2 825.5m-60 0a60 60 0 1 0 120 0 60 60 0 1 0-120 0Z" fill="#5BF5FF" /><path d="M331.1 834.9m-60 0a60 60 0 1 0 120 0 60 60 0 1 0-120 0Z" fill="#5BF3FF" /><path d="M341.4 843.9m-60 0a60 60 0 1 0 120 0 60 60 0 1 0-120 0Z" fill="#5CF1FF" /><path d="M352 852.5m-60 0a60 60 0 1 0 120 0 60 60 0 1 0-120 0Z" fill="#5CEFFF" /><path d="M363 860.6m-60 0a60 60 0 1 0 120 0 60 60 0 1 0-120 0Z" fill="#5DEEFF" /><path d="M374.4 868.1m-60 0a60 60 0 1 0 120 0 60 60 0 1 0-120 0Z" fill="#5DECFF" /><path d="M386.1 875.1m-60 0a60 60 0 1 0 120 0 60 60 0 1 0-120 0Z" fill="#5EEAFF" /><path d="M398.1 881.5m-60 0a60 60 0 1 0 120 0 60 60 0 1 0-120 0Z" fill="#5EE8FF" /><path d="M410.5 887.3m-60 0a60 60 0 1 0 120 0 60 60 0 1 0-120 0Z" fill="#5EE6FF" /><path d="M423.1 892.6m-60 0a60 60 0 1 0 120 0 60 60 0 1 0-120 0Z" fill="#5FE5FF" /><path d="M435.9 897.1m-60 0a60 60 0 1 0 120 0 60 60 0 1 0-120 0Z" fill="#5FE3FF" /><path d="M449 901m-60 0a60 60 0 1 0 120 0 60 60 0 1 0-120 0Z" fill="#60E1FF" /><path d="M462.3 904m-60 0a60 60 0 1 0 120 0 60 60 0 1 0-120 0Z" fill="#60DFFF" /><path d="M475.8 906.4m-60 0a60 60 0 1 0 120 0 60 60 0 1 0-120 0Z" fill="#61DEFF" /><path d="M489.3 908m-60 0a60 60 0 1 0 120 0 60 60 0 1 0-120 0Z" fill="#61DCFF" /><path d="M502.9 908.8m-60 0a60 60 0 1 0 120 0 60 60 0 1 0-120 0Z" fill="#62DAFF" /><path d="M516.6 909m-60 0a60 60 0 1 0 120 0 60 60 0 1 0-120 0Z" fill="#62D8FF" /><path d="M530.2 908.4m-60 0a60 60 0 1 0 120 0 60 60 0 1 0-120 0Z" fill="#63D6FF" /><path d="M543.8 907.1m-60 0a60 60 0 1 0 120 0 60 60 0 1 0-120 0Z" fill="#63D5FF" /><path d="M557.3 904.9m-60 0a60 60 0 1 0 120 0 60 60 0 1 0-120 0Z" fill="#63D3FF" /><path d="M570.6 902m-60 0a60 60 0 1 0 120 0 60 60 0 1 0-120 0Z" fill="#64D1FF" /><path d="M583.8 898.4m-60 0a60 60 0 1 0 120 0 60 60 0 1 0-120 0Z" fill="#64CFFF" /><path d="M596.7 894.1m-60 0a60 60 0 1 0 120 0 60 60 0 1 0-120 0Z" fill="#65CDFF" /><path d="M609.4 889.1m-60 0a60 60 0 1 0 120 0 60 60 0 1 0-120 0Z" fill="#65CCFF" /><path d="M621.9 883.5m-60 0a60 60 0 1 0 120 0 60 60 0 1 0-120 0Z" fill="#66CAFF" /><path d="M634 877.4m-60 0a60 60 0 1 0 120 0 60 60 0 1 0-120 0Z" fill="#66C8FF" /><path d="M645.9 870.5m-60 0a60 60 0 1 0 120 0 60 60 0 1 0-120 0Z" fill="#67C6FF" /><path d="M657.3 863.1m-60 0a60 60 0 1 0 120 0 60 60 0 1 0-120 0Z" fill="#67C4FF" /><path d="M668.4 855.2m-60 0a60 60 0 1 0 120 0 60 60 0 1 0-120 0Z" fill="#68C3FF" /><path d="M679.2 846.8m-60 0a60 60 0 1 0 120 0 60 60 0 1 0-120 0Z" fill="#68C1FF" /><path d="M689.6 837.9m-60 0a60 60 0 1 0 120 0 60 60 0 1 0-120 0Z" fill="#68BFFF" /><path d="M699.6 828.7m-60 0a60 60 0 1 0 120 0 60 60 0 1 0-120 0Z" fill="#69BDFF" /><path d="M709.2 819m-60 0a60 60 0 1 0 120 0 60 60 0 1 0-120 0Z" fill="#69BBFF" /><path d="M718.4 808.9m-60 0a60 60 0 1 0 120 0 60 60 0 1 0-120 0Z" fill="#6ABAFF" /><path d="M727.2 798.5m-60 0a60 60 0 1 0 120 0 60 60 0 1 0-120 0Z" fill="#6AB8FF" /><path d="M735.7 787.8m-60 0a60 60 0 1 0 120 0 60 60 0 1 0-120 0Z" fill="#6BB6FF" /><path d="M743.7 776.7m-60 0a60 60 0 1 0 120 0 60 60 0 1 0-120 0Z" fill="#6BB4FF" /><path d="M751.4 765.5m-60 0a60 60 0 1 0 120 0 60 60 0 1 0-120 0Z" fill="#6CB3FF" /><path d="M758.6 753.8m-60 0a60 60 0 1 0 120 0 60 60 0 1 0-120 0Z" fill="#6CB1FF" /><path d="M765.4 742m-60 0a60 60 0 1 0 120 0 60 60 0 1 0-120 0Z" fill="#6DAFFF" /><path d="M771.9 730m-60 0a60 60 0 1 0 120 0 60 60 0 1 0-120 0Z" fill="#6DADFF" /><path d="M778 717.8m-60 0a60 60 0 1 0 120 0 60 60 0 1 0-120 0Z" fill="#6DABFF" /><path d="M783.6 705.4m-60 0a60 60 0 1 0 120 0 60 60 0 1 0-120 0Z" fill="#6EAAFF" /><path d="M788.8 692.8m-60 0a60 60 0 1 0 120 0 60 60 0 1 0-120 0Z" fill="#6EA8FF" /><path d="M793.8 680m-60 0a60 60 0 1 0 120 0 60 60 0 1 0-120 0Z" fill="#6FA6FF" /><path d="M798.3 667.2m-60 0a60 60 0 1 0 120 0 60 60 0 1 0-120 0Z" fill="#6FA4FF" /><path d="M802.4 654.1m-60 0a60 60 0 1 0 120 0 60 60 0 1 0-120 0Z" fill="#70A2FF" /><path d="M806.1 641m-60 0a60 60 0 1 0 120 0 60 60 0 1 0-120 0Z" fill="#70A1FF" /><path d="M809.5 627.8m-60 0a60 60 0 1 0 120 0 60 60 0 1 0-120 0Z" fill="#719FFF" /><path d="M812.4 614.5m-60 0a60 60 0 1 0 120 0 60 60 0 1 0-120 0Z" fill="#719DFF" /><path d="M815 601.1m-60 0a60 60 0 1 0 120 0 60 60 0 1 0-120 0Z" fill="#729BFF" /><path d="M817.2 587.6m-60 0a60 60 0 1 0 120 0 60 60 0 1 0-120 0Z" fill="#7299FF" /><path d="M819.1 574.1m-60 0a60 60 0 1 0 120 0 60 60 0 1 0-120 0Z" fill="#7398FF" /><path d="M820.5 560.5m-60 0a60 60 0 1 0 120 0 60 60 0 1 0-120 0Z" fill="#7396FF" /><path d="M821.7 546.9m-60 0a60 60 0 1 0 120 0 60 60 0 1 0-120 0Z" fill="#7394FF" /><path d="M822.5 533.3m-60 0a60 60 0 1 0 120 0 60 60 0 1 0-120 0Z" fill="#7492FF" /><path d="M822.8 519.6m-60 0a60 60 0 1 0 120 0 60 60 0 1 0-120 0Z" fill="#7490FF" /><path d="M822.8 506m-60 0a60 60 0 1 0 120 0 60 60 0 1 0-120 0Z" fill="#758FFF" /><path d="M822.5 492.3m-60 0a60 60 0 1 0 120 0 60 60 0 1 0-120 0Z" fill="#758DFF" /><path d="M821.8 478.7m-60 0a60 60 0 1 0 120 0 60 60 0 1 0-120 0Z" fill="#768BFF" /><path d="M820.7 465.1m-60 0a60 60 0 1 0 120 0 60 60 0 1 0-120 0Z" fill="#7689FF" /><path d="M819.3 451.5m-60 0a60 60 0 1 0 120 0 60 60 0 1 0-120 0Z" fill="#7788FF" /><path d="M817.4 438m-60 0a60 60 0 1 0 120 0 60 60 0 1 0-120 0Z" fill="#7786FF" /><path d="M815.3 424.5m-60 0a60 60 0 1 0 120 0 60 60 0 1 0-120 0Z" fill="#7884FF" /><path d="M812.8 411.1m-60 0a60 60 0 1 0 120 0 60 60 0 1 0-120 0Z" fill="#7882FF" /><path d="M809.8 397.8m-60 0a60 60 0 1 0 120 0 60 60 0 1 0-120 0Z" fill="#7880FF" /><path d="M806.5 384.6m-60 0a60 60 0 1 0 120 0 60 60 0 1 0-120 0Z" fill="#797FFF" /><path d="M802.8 371.4m-60 0a60 60 0 1 0 120 0 60 60 0 1 0-120 0Z" fill="#797DFF" /><path d="M798.8 358.4m-60 0a60 60 0 1 0 120 0 60 60 0 1 0-120 0Z" fill="#7A7BFF" /><path d="M794.2 345.5m-60 0a60 60 0 1 0 120 0 60 60 0 1 0-120 0Z" fill="#7A79FF" /><path d="M789.4 332.7m-60 0a60 60 0 1 0 120 0 60 60 0 1 0-120 0Z" fill="#7B77FF" /><path d="M784.2 320.1m-60 0a60 60 0 1 0 120 0 60 60 0 1 0-120 0Z" fill="#7B76FF" /><path d="M778.6 307.7m-60 0a60 60 0 1 0 120 0 60 60 0 1 0-120 0Z" fill="#7C74FF" /><path d="M772.5 295.4m-60 0a60 60 0 1 0 120 0 60 60 0 1 0-120 0Z" fill="#7C72FF" /><path d="M766.1 283.4m-60 0a60 60 0 1 0 120 0 60 60 0 1 0-120 0Z" fill="#7D70FF" /><path d="M759.4 271.5m-60 0a60 60 0 1 0 120 0 60 60 0 1 0-120 0Z" fill="#7D6EFF" /><path d="M752.2 259.9m-60 0a60 60 0 1 0 120 0 60 60 0 1 0-120 0Z" fill="#7D6DFF" /><path d="M744.6 248.6m-60 0a60 60 0 1 0 120 0 60 60 0 1 0-120 0Z" fill="#7E6BFF" /><path d="M736.5 237.6m-60 0a60 60 0 1 0 120 0 60 60 0 1 0-120 0Z" fill="#7E69FF" /><path d="M728.2 226.8m-60 0a60 60 0 1 0 120 0 60 60 0 1 0-120 0Z" fill="#7F67FF" /><path d="M719.4 216.3m-60 0a60 60 0 1 0 120 0 60 60 0 1 0-120 0Z" fill="#7F65FF" /><path d="M710.3 206.2m-60 0a60 60 0 1 0 120 0 60 60 0 1 0-120 0Z" fill="#8064FF" /><path d="M700.7 196.5m-60 0a60 60 0 1 0 120 0 60 60 0 1 0-120 0Z" fill="#8062FF" /><path d="M690.7 187.2m-60 0a60 60 0 1 0 120 0 60 60 0 1 0-120 0Z" fill="#8160FF" /><path d="M680.3 178.3m-60 0a60 60 0 1 0 120 0 60 60 0 1 0-120 0Z" fill="#815EFF" /><path d="M669.6 169.8m-60 0a60 60 0 1 0 120 0 60 60 0 1 0-120 0Z" fill="#825DFF" /><path d="M658.6 161.8m-60 0a60 60 0 1 0 120 0 60 60 0 1 0-120 0Z" fill="#825BFF" /><path d="M647.1 154.4m-60 0a60 60 0 1 0 120 0 60 60 0 1 0-120 0Z" fill="#8259FF" /><path d="M635.3 147.5m-60 0a60 60 0 1 0 120 0 60 60 0 1 0-120 0Z" fill="#8357FF" /><path d="M623.2 141.2m-60 0a60 60 0 1 0 120 0 60 60 0 1 0-120 0Z" fill="#8355FF" /><path d="M610.8 135.6m-60 0a60 60 0 1 0 120 0 60 60 0 1 0-120 0Z" fill="#8454FF" /><path d="M598.1 130.5m-60 0a60 60 0 1 0 120 0 60 60 0 1 0-120 0Z" fill="#8452FF" /><path d="M585.2 126.2m-60 0a60 60 0 1 0 120 0 60 60 0 1 0-120 0Z" fill="#8550FF" /><path d="M572.1 122.5m-60 0a60 60 0 1 0 120 0 60 60 0 1 0-120 0Z" fill="#854EFF" /><path d="M558.7 119.5m-60 0a60 60 0 1 0 120 0 60 60 0 1 0-120 0Z" fill="#864CFF" /><path d="M545.3 117.3m-60 0a60 60 0 1 0 120 0 60 60 0 1 0-120 0Z" fill="#864BFF" /><path d="M531.7 115.9m-60 0a60 60 0 1 0 120 0 60 60 0 1 0-120 0Z" fill="#8749FF" /><path d="M518.1 175.2c33 0 60-27 60-60s-27-60-60-60-60 27-60 60 26.9 60 60 60z" fill="#8747FF" /></svg>